#N canvas 535 106 450 300 10;
#X obj 95 28 bng 15 250 50 0 empty empty empty 17 7 0 10 -262144 -1
-1;
#X obj 95 48 s seedChange;
#X text 177 50 initialize random seed values;
#X obj 72 234 dac~;
#X obj 72 104 adc~;
#X obj 159 142 machine;
#X obj 71 136 machine;
#X obj 159 164 machine;
#X obj 71 162 machine;
#X obj 71 184 machine;
#X msg 275 151 open record.wav;
#X obj 121 234 writesf~ 2;
#X msg 392 152 stop;
#X msg 371 172 start;
#X connect 0 0 1 0;
#X connect 4 0 5 0;
#X connect 4 0 6 0;
#X connect 5 0 7 0;
#X connect 6 0 8 0;
#X connect 7 0 3 1;
#X connect 7 0 11 1;
#X connect 8 0 9 0;
#X connect 9 0 3 0;
#X connect 9 0 11 0;
#X connect 10 0 11 0;
#X connect 12 0 11 0;
#X connect 13 0 11 0;
