#N canvas 786 94 598 503 10;
#X obj 95 280 osc~ 220;
#X obj 94 346 dac~, f 27;
#X obj 94 48 loadbang;
#X obj 94 70 del 1000;
#X msg 94 96 1 \; pd dsp 1;
#X obj 195 277 vline~;
#X obj 95 306 *~, f 17;
#X obj 94 141 metro 1000;
#X obj 194 153 random 350;
#X obj 194 201 + 50;
#X obj 95 256 random 1280;
#X obj 251 201 + 100;
#X obj 194 175 t f f, f 10;
#X obj 194 226 pack f f, f 10;
#X msg 194 253 0.6 50 0 \, 0.3 \$1 50 \, 0 50 \$2;
#X connect 0 0 6 0;
#X connect 2 0 3 0;
#X connect 3 0 4 0;
#X connect 4 0 7 0;
#X connect 5 0 6 1;
#X connect 6 0 1 0;
#X connect 6 0 1 1;
#X connect 7 0 8 0;
#X connect 7 0 10 0;
#X connect 8 0 12 0;
#X connect 9 0 13 0;
#X connect 10 0 0 0;
#X connect 11 0 13 1;
#X connect 12 0 9 0;
#X connect 12 1 11 0;
#X connect 13 0 14 0;
#X connect 14 0 5 0;
