#N canvas 624 48 682 466 10;
#X obj 19 176 vcf~, f 32;
#X obj 113 148 + 20;
#X text 104 44 access a random point in the buffer;
#X text 249 177 filter the input at a random center frequency and q
value;
#X obj 19 17 r seedChange;
#X obj 113 103 r seedChange;
#X obj 208 103 r seedChange;
#X obj 51 302 *~;
#X text 154 245 set random feedback level;
#X obj 66 259 / 10;
#X obj 66 212 r seedChange;
#X obj 113 126 random 9000;
#X obj 19 41 random 500;
#X obj 66 237 random 5;
#X obj 66 281 + 0.45;
#X obj 19 349 *~ 0.8;
#X obj 208 126 random 2;
#X obj 208 148 + 1;
#X obj 19 66 delread~ \$0-buffer;
#X obj 190 356 delwrite~ \$0-buffer 1000;
#X text 299 326 record the past 1 second of audio to a buffer;
#X obj 19 373 dac~;
#X obj 213 313 adc~;
#X obj 446 101 metro 20000;
#X obj 446 123 s seedChange;
#X obj 446 41 loadbang;
#X msg 446 63 1 \; pd dsp 1;
#X connect 0 0 7 0;
#X connect 0 0 15 0;
#X connect 1 0 0 1;
#X connect 4 0 12 0;
#X connect 5 0 11 0;
#X connect 6 0 16 0;
#X connect 7 0 19 0;
#X connect 9 0 14 0;
#X connect 10 0 13 0;
#X connect 11 0 1 0;
#X connect 12 0 18 0;
#X connect 13 0 9 0;
#X connect 14 0 7 1;
#X connect 15 0 21 0;
#X connect 15 0 21 1;
#X connect 16 0 17 0;
#X connect 17 0 0 2;
#X connect 18 0 0 0;
#X connect 22 0 19 0;
#X connect 23 0 24 0;
#X connect 25 0 26 0;
#X connect 26 0 23 0;
