#N canvas 664 148 598 503 10;
#X obj 335 257 osc~ 220;
#X obj 31 315 dac~, f 27;
#X obj 334 25 loadbang;
#X obj 334 47 del 1000;
#X msg 334 73 1 \; pd dsp 1;
#X obj 435 254 vline~;
#X obj 335 283 *~, f 17;
#X obj 334 118 metro 1000;
#X obj 231 313 delwrite~ buffer 2000;
#X obj 31 182 delread4~ buffer;
#X obj 31 156 expr~ $v1 * 500 + 500;
#X obj 434 130 random 350;
#X obj 434 178 + 50;
#X obj 335 233 random 1280;
#X obj 31 134 osc~ 0.05;
#X obj 173 177 delread4~ buffer;
#X obj 173 129 osc~ 0.09;
#X obj 31 208 *~ 0.5;
#X obj 173 203 *~ 0.5;
#X obj 173 151 expr~ $v1 * 1000 + 1000;
#X obj 491 178 + 100;
#X obj 434 152 t f f, f 10;
#X obj 434 203 pack f f, f 10;
#X msg 434 230 0.6 50 0 \, 0.3 \$1 50 \, 0 50 \$2;
#X connect 0 0 6 0;
#X connect 2 0 3 0;
#X connect 3 0 4 0;
#X connect 4 0 7 0;
#X connect 5 0 6 1;
#X connect 6 0 8 0;
#X connect 7 0 11 0;
#X connect 7 0 13 0;
#X connect 9 0 17 0;
#X connect 10 0 9 0;
#X connect 11 0 21 0;
#X connect 12 0 22 0;
#X connect 13 0 0 0;
#X connect 14 0 10 0;
#X connect 15 0 18 0;
#X connect 16 0 19 0;
#X connect 17 0 1 0;
#X connect 17 0 8 0;
#X connect 18 0 1 1;
#X connect 18 0 8 0;
#X connect 19 0 15 0;
#X connect 20 0 22 1;
#X connect 21 0 12 0;
#X connect 21 1 20 0;
#X connect 22 0 23 0;
#X connect 23 0 5 0;
