#N canvas 345 23 450 300 10;
#X obj 23 135 random 9000;
#X obj 110 135 random 1000;
#X obj 23 157 pack f f, f 15;
#X obj 23 106 t b b, f 15;
#X obj 23 78 metro;
#X obj 50 27 r seedChange;
#X obj 23 211 line;
#X msg 23 183 \$1 \$2;
#X obj 50 52 random 5000;
#X text 197 121 randomized ramping;
#X obj 23 9 inlet;
#X obj 23 233 outlet;
#X connect 0 0 2 0;
#X connect 1 0 2 1;
#X connect 2 0 7 0;
#X connect 3 0 0 0;
#X connect 3 1 1 0;
#X connect 4 0 3 0;
#X connect 5 0 8 0;
#X connect 6 0 11 0;
#X connect 7 0 6 0;
#X connect 8 0 4 1;
#X connect 10 0 4 0;
