#N canvas 604 366 638 417 10;
#X obj 167 318 snapshot~;
#X obj 95 118 +~ 1;
#X obj 33 4 loadbang;
#X obj 33 41 metro 50;
#X obj 95 92 osc~ 0.05;
#X obj 254 184 until;
#X msg 254 132 10;
#X obj 254 262 i;
#X obj 286 262 + 1;
#X obj 254 158 t f b;
#X obj 254 288 pack f f;
#X msg 269 236 1;
#X obj 318 158 tabread scale;
#X obj 254 210 t b b b;
#X obj 318 262 +;
#X obj 318 132 random 7;
#X obj 163 45 metro 5000;
#X obj 333 236 + 36;
#X obj 333 210 * 12;
#X obj 333 184 random 3;
#X obj 95 144 *~ 500;
#X obj 163 158 random 2;
#X obj 163 184 sel 0 1;
#X obj 182 262 line;
#X obj 167 288 +~;
#X msg 163 236 3000 5000;
#X msg 182 210 50 5000;
#X obj 167 343 outlet;
#X obj 254 343 outlet;
#X obj 455 346 outlet;
#X connect 0 0 27 0;
#X connect 1 0 20 0;
#X connect 2 0 3 0;
#X connect 2 0 16 0;
#X connect 3 0 0 0;
#X connect 4 0 1 0;
#X connect 5 0 13 0;
#X connect 6 0 9 0;
#X connect 7 0 8 0;
#X connect 7 0 10 0;
#X connect 8 0 7 1;
#X connect 9 0 5 0;
#X connect 9 1 11 0;
#X connect 10 0 28 0;
#X connect 11 0 7 1;
#X connect 12 0 14 0;
#X connect 13 0 7 0;
#X connect 13 1 15 0;
#X connect 13 2 19 0;
#X connect 14 0 10 1;
#X connect 15 0 12 0;
#X connect 16 0 6 0;
#X connect 16 0 21 0;
#X connect 17 0 14 1;
#X connect 18 0 17 0;
#X connect 19 0 18 0;
#X connect 20 0 24 0;
#X connect 21 0 22 0;
#X connect 22 0 25 0;
#X connect 22 1 26 0;
#X connect 23 0 24 1;
#X connect 23 0 29 0;
#X connect 24 0 0 0;
#X connect 25 0 23 0;
#X connect 26 0 23 0;
