#N canvas 199 23 1440 830 10;
#N canvas 568 294 1044 672 udpsend 1;
#X msg -398 60 disconnect;
#X msg -216 242 info;
#X msg -258 200 channels \$1;
#X obj -412 185 hradio 15 1 0 4 empty empty empty 0 -8 0 10 -4034 -1
-1 2;
#X obj -178 297 udpsend~ 2 512;
#X text -450 200 number of channels to transmit;
#X floatatom -412 216 5 0 0 0 - - -, f 5;
#X obj -288 172 tgl 15 0 empty empty toggle_connection 17 7 0 10 -4034
-1 -1 0 1;
#X msg -419 39 connect 192.168.1.195 8008;
#X msg -398 60 disconnect;
#X msg -216 242 info;
#X msg -258 200 channels \$1;
#X obj -412 185 hradio 15 1 0 4 empty empty empty 0 -8 0 10 -4034 -1
-1 2;
#X obj -178 297 udpsend~ 2 512;
#X text -450 200 number of channels to transmit;
#X floatatom -412 216 5 0 0 0 - - -, f 5;
#X obj -288 172 tgl 15 0 empty empty toggle_connection 17 7 0 10 -4034
-1 -1 0 1;
#X msg -419 39 connect 192.168.1.195 8008;
#X msg 102 74 disconnect;
#X msg 147 119 format float;
#X msg 168 140 format 16bit;
#X msg 189 161 format 8bit;
#X msg 60 32 connect localhost 8008;
#X obj 322 334 tgl 15 0 empty empty empty 17 7 0 10 -4034 -1 -1 0 1
;
#X msg 284 256 info;
#X text 85 255 status info to rightmost outlet;
#X msg 242 214 channels \$1;
#X obj 88 199 hradio 15 1 0 4 empty empty empty 0 -8 0 10 -4034 -1
-1 2;
#X obj 322 311 udpsend~ 2 512;
#X text 340 332 1 = transmitting;
#X text 171 73 stop transmitting;
#X text 50 214 number of channels to transmit;
#X text 44 327 [udpreceive~] and [udpsend~];
#X floatatom 88 230 5 0 0 0 - - -, f 5;
#X obj 212 186 tgl 15 0 empty empty toggle_connection 17 7 0 10 -4034
-1 -1 0 1;
#N canvas 63 270 657 334 multicast 0;
#X msg 91 87 multicast_interface 192.168.0.88;
#X msg 66 62 multicast_interface eth1;
#X text 229 13 send to a multicast address;
#X text 201 38 specify an interface to use with multicast;
#X msg 43 39 multicast_interface 1;
#X text 251 61 by index \, name or address;
#X floatatom 183 112 5 0 256 0 - - -, f 5;
#X obj 165 135 f 1;
#X obj 165 115 bng 15 250 50 0 empty empty empty 17 7 0 10 -4034 -1
-1;
#X text 17 136 set multicast ttl:;
#X msg 165 161 multicast_ttl \$1;
#X msg 215 211 multicast_loopback \$1;
#X obj 215 189 tgl 15 0 empty empty empty 20 7 0 8 -24198 -241291 -1
0 1;
#X text 26 187 enable multicast loopback:;
#X obj 244 257 outlet;
#X msg 18 14 connect 239.200.200.200 8008;
#X text 262 278 [udpreceive~ 8008 2 512 239.200.200.200];
#X text -70 278 Will be received by any udpreceive~ declared like this:
;
#X text 347 295 (2 and 512 may be changed);
#X connect 0 0 14 0;
#X connect 1 0 14 0;
#X connect 4 0 14 0;
#X connect 6 0 7 1;
#X connect 7 0 10 0;
#X connect 8 0 7 0;
#X connect 10 0 14 0;
#X connect 11 0 14 0;
#X connect 12 0 11 0;
#X connect 15 0 14 0;
#X restore 153 294 pd multicast;
#X text 45 342 Author: Martin Peach 2010/10/28;
#X obj 344 267 inlet~;
#X obj 393 266 inlet~;
#X msg 81 53 connect 10.196.19.18 8008;
#X connect 0 0 4 0;
#X connect 1 0 4 0;
#X connect 2 0 4 0;
#X connect 3 0 2 0;
#X connect 3 0 6 0;
#X connect 7 0 4 0;
#X connect 8 0 4 0;
#X connect 9 0 13 0;
#X connect 10 0 13 0;
#X connect 11 0 13 0;
#X connect 12 0 11 0;
#X connect 12 0 15 0;
#X connect 16 0 13 0;
#X connect 17 0 13 0;
#X connect 18 0 28 0;
#X connect 19 0 28 0;
#X connect 20 0 28 0;
#X connect 21 0 28 0;
#X connect 22 0 28 0;
#X connect 24 0 28 0;
#X connect 26 0 28 0;
#X connect 27 0 26 0;
#X connect 27 0 33 0;
#X connect 28 0 23 0;
#X connect 34 0 28 0;
#X connect 35 0 28 0;
#X connect 37 0 28 0;
#X connect 38 0 28 1;
#X connect 39 0 28 0;
#X restore 395 789 pd udpsend;
#X obj 11 694 catch~ l_fx;
#X obj 231 697 catch~ r_fx;
#X obj 11 722 verbFX, f 74;
#X obj 1153 728 s seedChange;
#X obj 1153 601 loadbang;
#X msg 1153 623 1 \; pd dsp 1;
#X obj 452 696 r outRamp;
#X obj 1153 703 bng 15 250 50 0 empty empty empty 17 7 0 10 -262144
-1 -1;
#X obj 1153 679 metro 10000;
#X text 23 28 USE HEADPHONES. THIS PATCH USES MICROPHONE FEEDBACK AND
WILL ACCUMULATE QUICKLY AND DANGEROUSLY IF MONITORED THROUGH SPEAKERS!
;
#X obj 1153 659 tgl 15 0 empty empty empty 17 7 0 10 -262144 -1 -1
0 1;
#X obj 15 212 vsl 10 50 0 12 0 0 empty empty empty 0 -9 0 10 -262144
-1 -1 817 1;
#X obj 356 211 vsl 10 50 0 500 0 0 empty empty empty 0 -9 0 10 -262144
-1 -1 4753 1;
#X obj 958 713 catch~ buffWrite;
#X text 26 216 loop speed;
#X obj 15 118 r seedChange;
#X obj 15 186 line;
#X obj 94 212 vsl 10 50 0 12 0 0 empty empty empty 0 -9 0 10 -262144
-1 -1 0 1;
#X text 105 216 loop speed;
#X obj 94 118 r seedChange;
#X obj 94 186 line;
#X obj 172 212 vsl 10 50 0 12 0 0 empty empty empty 0 -9 0 10 -262144
-1 -1 817 1;
#X text 183 216 loop speed;
#X obj 172 118 r seedChange;
#X obj 172 186 line;
#X obj 251 212 vsl 10 50 0 12 0 0 empty empty empty 0 -9 0 10 -262144
-1 -1 408 1;
#X text 262 216 loop speed;
#X obj 251 118 r seedChange;
#X obj 251 186 line;
#X obj 356 119 r seedChange;
#X obj 437 119 r seedChange;
#X obj 518 119 r seedChange;
#X obj 437 142 random 9000;
#X obj 356 143 random 500;
#X obj 599 119 r seedChange;
#X obj 599 144 random 5;
#X obj 518 210 vsl 10 50 0 500 0 0 empty empty empty 0 -9 0 10 -262144
-1 -1 2127 1;
#X obj 599 212 vsl 10 50 0 5 0 0 empty empty empty 0 -9 0 10 -262144
-1 -1 2940 1;
#X obj 437 209 vsl 10 50 0 9000 0 0 empty empty empty 0 -9 0 10 -262144
-1 -1 441 1;
#X obj 356 273 piMachine3, f 41;
#X obj 356 188 line;
#X obj 437 187 line;
#X obj 518 188 line;
#X obj 599 189 line;
#X obj 682 211 vsl 10 50 0 500 0 0 empty empty empty 0 -9 0 10 -262144
-1 -1 4273 1;
#X obj 682 119 r seedChange;
#X obj 763 119 r seedChange;
#X obj 844 119 r seedChange;
#X obj 763 142 random 9000;
#X obj 925 119 r seedChange;
#X obj 925 144 random 5;
#X obj 844 210 vsl 10 50 0 500 0 0 empty empty empty 0 -9 0 10 -262144
-1 -1 1568 1;
#X obj 925 212 vsl 10 50 0 5 0 0 empty empty empty 0 -9 0 10 -262144
-1 -1 980 1;
#X obj 763 209 vsl 10 50 0 9000 0 0 empty empty empty 0 -9 0 10 -262144
-1 -1 3242 1;
#X obj 682 273 piMachine3, f 41;
#X obj 682 188 line;
#X obj 763 187 line;
#X obj 844 188 line;
#X obj 925 189 line;
#X obj 15 426 vsl 10 50 0 12 0 0 empty empty empty 0 -9 0 10 -262144
-1 -1 408 1;
#X text 26 430 loop speed;
#X obj 15 332 r seedChange;
#X obj 15 400 line;
#X obj 94 426 vsl 10 50 0 12 0 0 empty empty empty 0 -9 0 10 -262144
-1 -1 408 1;
#X text 105 430 loop speed;
#X obj 94 332 r seedChange;
#X obj 94 400 line;
#X obj 172 426 vsl 10 50 0 12 0 0 empty empty empty 0 -9 0 10 -262144
-1 -1 0 1;
#X text 183 430 loop speed;
#X obj 172 332 r seedChange;
#X obj 172 400 line;
#X obj 251 426 vsl 10 50 0 12 0 0 empty empty empty 0 -9 0 10 -262144
-1 -1 0 1;
#X text 262 430 loop speed;
#X obj 251 332 r seedChange;
#X obj 251 400 line;
#X obj 335 426 vsl 10 50 0 12 0 0 empty empty empty 0 -9 0 10 -262144
-1 -1 408 1;
#X text 346 430 loop speed;
#X obj 335 332 r seedChange;
#X obj 335 400 line;
#X obj 414 426 vsl 10 50 0 12 0 0 empty empty empty 0 -9 0 10 -262144
-1 -1 0 1;
#X text 425 430 loop speed;
#X obj 414 332 r seedChange;
#X obj 414 400 line;
#X obj 492 426 vsl 10 50 0 12 0 0 empty empty empty 0 -9 0 10 -262144
-1 -1 0 1;
#X text 503 430 loop speed;
#X obj 492 332 r seedChange;
#X obj 492 400 line;
#X obj 571 426 vsl 10 50 0 12 0 0 empty empty empty 0 -9 0 10 -262144
-1 -1 0 1;
#X text 582 430 loop speed;
#X obj 571 332 r seedChange;
#X obj 571 400 line;
#X obj 682 143 random 500;
#X obj 251 140 random 3;
#X obj 172 140 random 3;
#X obj 94 140 random 3;
#X obj 15 140 random 3;
#X obj 685 417 vsl 10 50 0 500 0 0 empty empty empty 0 -9 0 10 -262144
-1 -1 1686 1;
#X obj 685 325 r seedChange;
#X obj 766 325 r seedChange;
#X obj 847 325 r seedChange;
#X obj 766 348 random 9000;
#X obj 928 325 r seedChange;
#X obj 928 350 random 5;
#X obj 847 416 vsl 10 50 0 500 0 0 empty empty empty 0 -9 0 10 -262144
-1 -1 1205 1;
#X obj 928 418 vsl 10 50 0 5 0 0 empty empty empty 0 -9 0 10 -262144
-1 -1 980 1;
#X obj 766 415 vsl 10 50 0 9000 0 0 empty empty empty 0 -9 0 10 -262144
-1 -1 1100 1;
#X obj 685 479 piMachine3, f 41;
#X obj 685 394 line;
#X obj 766 393 line;
#X obj 847 394 line;
#X obj 928 395 line;
#X obj 685 349 random 500;
#X msg 15 162 \$1 500;
#X msg 94 162 \$1 500;
#X msg 172 162 \$1 500;
#X msg 251 162 \$1 500;
#X msg 356 164 \$1 500;
#X msg 437 163 \$1 500;
#X msg 518 164 \$1 500;
#X msg 599 165 \$1 500;
#X msg 682 164 \$1 500;
#X msg 763 163 \$1 500;
#X msg 844 164 \$1 500;
#X msg 925 165 \$1 500;
#X msg 847 370 \$1 500;
#X msg 928 371 \$1 500;
#X msg 571 376 \$1 500;
#X msg 492 376 \$1 500;
#X msg 414 376 \$1 500;
#X msg 335 376 \$1 500;
#X msg 251 376 \$1 500;
#X msg 172 376 \$1 500;
#X msg 94 376 \$1 500;
#X msg 15 376 \$1 500;
#X msg 766 369 \$1 500;
#X msg 685 370 \$1 500;
#X obj 1030 420 vsl 10 50 0 500 0 0 empty empty empty 0 -9 0 10 -262144
-1 -1 1480 1;
#X obj 1030 328 r seedChange;
#X obj 1111 328 r seedChange;
#X obj 1192 328 r seedChange;
#X obj 1111 351 random 9000;
#X obj 1273 328 r seedChange;
#X obj 1273 353 random 5;
#X obj 1192 419 vsl 10 50 0 500 0 0 empty empty empty 0 -9 0 10 -262144
-1 -1 1656 1;
#X obj 1273 421 vsl 10 50 0 5 0 0 empty empty empty 0 -9 0 10 -262144
-1 -1 2940 1;
#X obj 1111 418 vsl 10 50 0 9000 0 0 empty empty empty 0 -9 0 10 -262144
-1 -1 1160 1;
#X obj 1030 482 piMachine3, f 41;
#X obj 1030 397 line;
#X obj 1111 396 line;
#X obj 1192 397 line;
#X obj 1273 398 line;
#X obj 1030 352 random 500;
#X msg 1192 373 \$1 500;
#X msg 1273 374 \$1 500;
#X msg 1111 372 \$1 500;
#X msg 1030 373 \$1 500;
#X obj 1034 215 vsl 10 50 0 500 0 0 empty empty empty 0 -9 0 10 -262144
-1 -1 4626 1;
#X obj 1034 123 r seedChange;
#X obj 1115 123 r seedChange;
#X obj 1196 123 r seedChange;
#X obj 1115 146 random 9000;
#X obj 1277 123 r seedChange;
#X obj 1277 148 random 5;
#X obj 1196 214 vsl 10 50 0 500 0 0 empty empty empty 0 -9 0 10 -262144
-1 -1 3773 1;
#X obj 1277 216 vsl 10 50 0 5 0 0 empty empty empty 0 -9 0 10 -262144
-1 -1 3920 1;
#X obj 1115 213 vsl 10 50 0 9000 0 0 empty empty empty 0 -9 0 10 -262144
-1 -1 369 1;
#X obj 1034 277 piMachine3, f 41;
#X obj 1034 192 line;
#X obj 1115 191 line;
#X obj 1196 192 line;
#X obj 1277 193 line;
#X obj 1034 147 random 500;
#X msg 1196 168 \$1 500;
#X msg 1277 169 \$1 500;
#X msg 1115 167 \$1 500;
#X msg 1034 168 \$1 500;
#X text 519 609 loop speed;
#X obj 508 511 r seedChange;
#X obj 508 579 line;
#X obj 587 605 vsl 10 50 0 12 0 0 empty empty empty 0 -9 0 10 -262144
-1 -1 817 1;
#X text 598 609 loop speed;
#X obj 587 511 r seedChange;
#X obj 587 579 line;
#X obj 665 605 vsl 10 50 0 12 0 0 empty empty empty 0 -9 0 10 -262144
-1 -1 0 1;
#X text 676 609 loop speed;
#X obj 665 511 r seedChange;
#X obj 665 579 line;
#X obj 744 605 vsl 10 50 0 12 0 0 empty empty empty 0 -9 0 10 -262144
-1 -1 408 1;
#X text 755 609 loop speed;
#X obj 744 511 r seedChange;
#X obj 744 579 line;
#X obj 828 605 vsl 10 50 0 12 0 0 empty empty empty 0 -9 0 10 -262144
-1 -1 0 1;
#X text 839 609 loop speed;
#X obj 828 511 r seedChange;
#X obj 828 579 line;
#X obj 907 605 vsl 10 50 0 12 0 0 empty empty empty 0 -9 0 10 -262144
-1 -1 0 1;
#X text 918 609 loop speed;
#X obj 907 511 r seedChange;
#X obj 907 579 line;
#X obj 985 605 vsl 10 50 0 12 0 0 empty empty empty 0 -9 0 10 -262144
-1 -1 408 1;
#X text 996 609 loop speed;
#X obj 985 511 r seedChange;
#X obj 985 579 line;
#X obj 1064 605 vsl 10 50 0 12 0 0 empty empty empty 0 -9 0 10 -262144
-1 -1 408 1;
#X text 1075 609 loop speed;
#X obj 1064 511 r seedChange;
#X obj 1064 579 line;
#X msg 1064 555 \$1 500;
#X msg 985 555 \$1 500;
#X msg 907 555 \$1 500;
#X msg 828 555 \$1 500;
#X msg 744 555 \$1 500;
#X msg 665 555 \$1 500;
#X msg 587 555 \$1 500;
#X msg 508 555 \$1 500;
#X obj 512 605 vsl 10 50 0 12 0 0 empty empty empty 0 -9 0 10 -262144
-1 -1 0 1;
#X text 523 609;
#X obj 958 736 delwrite~ piBuffer10 5000;
#X obj 251 272 bufferLoop;
#X obj 414 486 bufferLoop;
#X obj 571 486 bufferLoop;
#X obj 15 272 bufferLoop;
#X obj 94 272 bufferLoop;
#X obj 172 272 bufferLoop;
#X obj 15 486 bufferLoop;
#X obj 94 486 bufferLoop;
#X obj 172 486 bufferLoop;
#X obj 251 486 bufferLoop;
#X obj 335 486 bufferLoop;
#X obj 492 486 bufferLoop;
#X obj 508 665 bufferLoop;
#X obj 587 665 bufferLoop;
#X obj 665 665 bufferLoop;
#X obj 744 665 bufferLoop;
#X obj 828 665 bufferLoop;
#X obj 907 665 bufferLoop;
#X obj 985 665 bufferLoop;
#X obj 1064 665 bufferLoop;
#X obj 844 142 random 500;
#X obj 1196 146 random 500;
#X obj 1192 351 random 500;
#X obj 847 348 random 500;
#X obj 518 142 random 500;
#X obj 15 354 random 3;
#X obj 94 354 random 3;
#X obj 172 354 random 3;
#X obj 251 354 random 3;
#X obj 335 354 random 3;
#X obj 414 354 random 3;
#X obj 492 354 random 3;
#X obj 571 354 random 3;
#X obj 508 533 random 3;
#X obj 587 533 random 3;
#X obj 665 533 random 3;
#X obj 744 533 random 3;
#X obj 828 533 random 3;
#X obj 907 533 random 3;
#X obj 985 533 random 3;
#X obj 1064 533 random 3;
#X obj 21 801 dac~;
#X connect 1 0 3 0;
#X connect 2 0 3 1;
#X connect 3 0 0 0;
#X connect 3 0 260 0;
#X connect 3 1 0 1;
#X connect 3 1 260 1;
#X connect 3 2 0 0;
#X connect 3 2 260 0;
#X connect 3 3 0 1;
#X connect 3 3 260 1;
#X connect 3 4 0 0;
#X connect 3 4 260 0;
#X connect 3 5 0 1;
#X connect 3 5 260 1;
#X connect 5 0 6 0;
#X connect 6 0 11 0;
#X connect 7 0 3 2;
#X connect 8 0 4 0;
#X connect 9 0 8 0;
#X connect 11 0 9 0;
#X connect 12 0 222 0;
#X connect 13 0 40 0;
#X connect 14 0 218 0;
#X connect 16 0 96 0;
#X connect 17 0 12 0;
#X connect 18 0 223 0;
#X connect 20 0 95 0;
#X connect 21 0 18 0;
#X connect 22 0 224 0;
#X connect 24 0 94 0;
#X connect 25 0 22 0;
#X connect 26 0 219 0;
#X connect 28 0 93 0;
#X connect 29 0 26 0;
#X connect 30 0 34 0;
#X connect 31 0 33 0;
#X connect 32 0 243 0;
#X connect 33 0 118 0;
#X connect 34 0 117 0;
#X connect 35 0 36 0;
#X connect 36 0 120 0;
#X connect 37 0 40 2;
#X connect 38 0 40 3;
#X connect 39 0 40 1;
#X connect 41 0 13 0;
#X connect 42 0 39 0;
#X connect 43 0 37 0;
#X connect 44 0 38 0;
#X connect 45 0 55 0;
#X connect 46 0 92 0;
#X connect 47 0 49 0;
#X connect 48 0 239 0;
#X connect 49 0 122 0;
#X connect 50 0 51 0;
#X connect 51 0 124 0;
#X connect 52 0 55 2;
#X connect 53 0 55 3;
#X connect 54 0 55 1;
#X connect 56 0 45 0;
#X connect 57 0 54 0;
#X connect 58 0 52 0;
#X connect 59 0 53 0;
#X connect 60 0 225 0;
#X connect 62 0 244 0;
#X connect 63 0 60 0;
#X connect 64 0 226 0;
#X connect 66 0 245 0;
#X connect 67 0 64 0;
#X connect 68 0 227 0;
#X connect 70 0 246 0;
#X connect 71 0 68 0;
#X connect 72 0 228 0;
#X connect 74 0 247 0;
#X connect 75 0 72 0;
#X connect 76 0 229 0;
#X connect 78 0 248 0;
#X connect 79 0 76 0;
#X connect 80 0 220 0;
#X connect 82 0 249 0;
#X connect 83 0 80 0;
#X connect 84 0 230 0;
#X connect 86 0 250 0;
#X connect 87 0 84 0;
#X connect 88 0 221 0;
#X connect 90 0 251 0;
#X connect 91 0 88 0;
#X connect 92 0 121 0;
#X connect 93 0 116 0;
#X connect 94 0 115 0;
#X connect 95 0 114 0;
#X connect 96 0 113 0;
#X connect 97 0 107 0;
#X connect 98 0 112 0;
#X connect 99 0 101 0;
#X connect 100 0 242 0;
#X connect 101 0 135 0;
#X connect 102 0 103 0;
#X connect 103 0 126 0;
#X connect 104 0 107 2;
#X connect 105 0 107 3;
#X connect 106 0 107 1;
#X connect 108 0 97 0;
#X connect 109 0 106 0;
#X connect 110 0 104 0;
#X connect 111 0 105 0;
#X connect 112 0 136 0;
#X connect 113 0 17 0;
#X connect 114 0 21 0;
#X connect 115 0 25 0;
#X connect 116 0 29 0;
#X connect 117 0 41 0;
#X connect 118 0 42 0;
#X connect 119 0 43 0;
#X connect 120 0 44 0;
#X connect 121 0 56 0;
#X connect 122 0 57 0;
#X connect 123 0 58 0;
#X connect 124 0 59 0;
#X connect 125 0 110 0;
#X connect 126 0 111 0;
#X connect 127 0 91 0;
#X connect 128 0 87 0;
#X connect 129 0 83 0;
#X connect 130 0 79 0;
#X connect 131 0 75 0;
#X connect 132 0 71 0;
#X connect 133 0 67 0;
#X connect 134 0 63 0;
#X connect 135 0 109 0;
#X connect 136 0 108 0;
#X connect 137 0 147 0;
#X connect 138 0 152 0;
#X connect 139 0 141 0;
#X connect 140 0 241 0;
#X connect 141 0 155 0;
#X connect 142 0 143 0;
#X connect 143 0 154 0;
#X connect 144 0 147 2;
#X connect 145 0 147 3;
#X connect 146 0 147 1;
#X connect 148 0 137 0;
#X connect 149 0 146 0;
#X connect 150 0 144 0;
#X connect 151 0 145 0;
#X connect 152 0 156 0;
#X connect 153 0 150 0;
#X connect 154 0 151 0;
#X connect 155 0 149 0;
#X connect 156 0 148 0;
#X connect 157 0 167 0;
#X connect 158 0 172 0;
#X connect 159 0 161 0;
#X connect 160 0 240 0;
#X connect 161 0 175 0;
#X connect 162 0 163 0;
#X connect 163 0 174 0;
#X connect 164 0 167 2;
#X connect 165 0 167 3;
#X connect 166 0 167 1;
#X connect 168 0 157 0;
#X connect 169 0 166 0;
#X connect 170 0 164 0;
#X connect 171 0 165 0;
#X connect 172 0 176 0;
#X connect 173 0 170 0;
#X connect 174 0 171 0;
#X connect 175 0 169 0;
#X connect 176 0 168 0;
#X connect 178 0 252 0;
#X connect 179 0 216 0;
#X connect 180 0 232 0;
#X connect 182 0 253 0;
#X connect 183 0 180 0;
#X connect 184 0 233 0;
#X connect 186 0 254 0;
#X connect 187 0 184 0;
#X connect 188 0 234 0;
#X connect 190 0 255 0;
#X connect 191 0 188 0;
#X connect 192 0 235 0;
#X connect 194 0 256 0;
#X connect 195 0 192 0;
#X connect 196 0 236 0;
#X connect 198 0 257 0;
#X connect 199 0 196 0;
#X connect 200 0 237 0;
#X connect 202 0 258 0;
#X connect 203 0 200 0;
#X connect 204 0 238 0;
#X connect 206 0 259 0;
#X connect 207 0 204 0;
#X connect 208 0 207 0;
#X connect 209 0 203 0;
#X connect 210 0 199 0;
#X connect 211 0 195 0;
#X connect 212 0 191 0;
#X connect 213 0 187 0;
#X connect 214 0 183 0;
#X connect 215 0 179 0;
#X connect 216 0 231 0;
#X connect 239 0 123 0;
#X connect 240 0 173 0;
#X connect 241 0 153 0;
#X connect 242 0 125 0;
#X connect 243 0 119 0;
#X connect 244 0 134 0;
#X connect 245 0 133 0;
#X connect 246 0 132 0;
#X connect 247 0 131 0;
#X connect 248 0 130 0;
#X connect 249 0 129 0;
#X connect 250 0 128 0;
#X connect 251 0 127 0;
#X connect 252 0 215 0;
#X connect 253 0 214 0;
#X connect 254 0 213 0;
#X connect 255 0 212 0;
#X connect 256 0 211 0;
#X connect 257 0 210 0;
#X connect 258 0 209 0;
#X connect 259 0 208 0;
