#N canvas 275 81 1283 901 10;
#X obj 937 154 mtof;
#X obj 937 130 nbx 5 14 -1e+37 1e+37 0 1 empty empty empty 0 -8 0 10
-262144 -1 -1 53.7429 256;
#X obj 278 154 mtof;
#X obj 278 130 nbx 5 14 -1e+37 1e+37 0 1 empty empty empty 0 -8 0 10
-262144 -1 -1 53.7429 256;
#X obj 387 154 mtof;
#X obj 387 130 nbx 5 14 -1e+37 1e+37 0 1 empty empty empty 0 -8 0 10
-262144 -1 -1 65.7429 256;
#X obj 498 154 mtof;
#X obj 498 130 nbx 5 14 -1e+37 1e+37 0 1 empty empty empty 0 -8 0 10
-262144 -1 -1 59.8286 256;
#X obj 607 154 mtof;
#X obj 607 130 nbx 5 14 -1e+37 1e+37 0 1 empty empty empty 0 -8 0 10
-262144 -1 -1 54.3429 256;
#X obj 718 154 mtof;
#X obj 718 130 nbx 5 14 -1e+37 1e+37 0 1 empty empty empty 0 -8 0 10
-262144 -1 -1 41.7429 256;
#X obj 828 154 mtof;
#X obj 828 128 nbx 5 14 -1e+37 1e+37 0 1 empty empty empty 0 -8 0 10
-262144 -1 -1 62.0571 256;
#X obj 255 48 snapshot~;
#X obj 183 -82 +~ 1;
#X obj 121 -108 loadbang;
#X obj 121 -82 metro 50;
#X obj 183 -108 osc~ 0.05;
#X obj 342 -82 until;
#X msg 342 -134 10;
#X obj 342 -4 i;
#X obj 374 -4 + 1;
#X obj 342 -108 t f b;
#X obj 342 22 pack f f;
#X msg 357 -30 1;
#N canvas 0 22 450 300 (subpatch) 0;
#X array scale 7 float 1;
#A 0 5.74286 11.5714 7.2 14.0571 6.34286 11.8286 3.77143;
#X coords 0 12 6 0 200 140 1;
#X restore 498 -134 graph;
#X obj 406 -108 tabread scale;
#X obj 342 -56 t b b b;
#X obj 406 -4 +;
#X obj 406 -134 random 7;
#X obj 342 -160 metro 5000;
#X obj 194 446 hsl 128 15 0 1 0 1 empty empty empty -2 -8 0 10 -262144
-1 -1 9400 1;
#X obj 365 207 autopan;
#X obj -74 631 writesf~ 2;
#X msg 0 631 start;
#X msg 48 631 stop;
#X obj 421 -30 + 36;
#X obj 421 -56 * 12;
#X obj 421 -82 random 3;
#X obj -36 389 random 2;
#X obj -74 389 lop~;
#X obj -74 415 lop~;
#X obj -74 441 hip~;
#X obj -74 467 hip~;
#X obj 127 467 hip~;
#X obj 127 441 hip~;
#X obj 127 415 lop~;
#X obj 127 389 lop~;
#X obj -36 415 sel 0 1;
#X obj -17 493 line;
#X obj 36 389 random 2;
#X obj 36 415 sel 0 1;
#X obj 55 493 line;
#X obj 695 104 stream~ 15500 60;
#X obj 585 104 stream~ 16000 58;
#X obj 475 104 stream~ 16500 56;
#X obj 365 104 stream~ 17000 54;
#X obj 255 104 stream~ 17500 52;
#X obj 915 104 stream~ 19000 46;
#X obj 806 104 stream~ 20000 42;
#X obj 256 207 autopan;
#X obj 476 207 autopan;
#X obj 585 207 autopan;
#X obj 696 207 autopan;
#X obj 806 207 autopan;
#X obj 915 207 autopan;
#X obj 183 -56 *~ 500;
#X obj 251 -108 random 2;
#X obj 251 -82 sel 0 1;
#X obj 270 -4 line;
#X obj 255 22 +~;
#X msg 251 -30 3000 5000;
#X msg 270 -56 50 5000;
#X msg 0 605 open -bytes 4 Song_0000.wav;
#X obj -74 311 catch~ \$0-l_fx;
#X obj 127 311 catch~ \$0-r_fx;
#X obj 256 233 throw~ \$0-l_fx;
#X obj 365 233 throw~ \$0-l_fx;
#X obj 585 233 throw~ \$0-l_fx;
#X obj 696 233 throw~ \$0-l_fx;
#X obj 806 233 throw~ \$0-l_fx;
#X obj 915 233 throw~ \$0-l_fx;
#X obj 295 259 throw~ \$0-r_fx;
#X obj 404 259 throw~ \$0-r_fx;
#X obj 515 259 throw~ \$0-r_fx;
#X obj 624 259 throw~ \$0-r_fx;
#X obj 735 259 throw~ \$0-r_fx;
#X obj 845 259 throw~ \$0-r_fx;
#X obj 954 259 throw~ \$0-r_fx;
#X obj 127 549 freezeverb 300;
#X obj -74 549 freezeverb 299;
#X obj 351 445 osc~;
#X obj 351 367 vline~;
#X obj 351 315 * 4;
#X obj 351 393 +~;
#X obj 411 367 *~;
#X msg 351 341 \$1 2500;
#X obj 411 315 osc~ 1864;
#X obj 482 445 osc~;
#X obj 482 367 vline~;
#X obj 482 315 * 4;
#X obj 482 393 +~;
#X obj 426 341 *~ 2000;
#X obj 127 363 *~;
#X obj -74 363 *~;
#X obj 476 180 vcf~ 800;
#X msg 36 467 300 2500;
#X msg 55 441 1500 2500;
#X msg -17 441 1500 2500;
#X msg -36 467 300 2500;
#X obj 256 180 vcf~ 600;
#X obj 365 180 vcf~ 700;
#X obj 585 180 vcf~ 300;
#X obj 696 180 vcf~ 400;
#X obj 806 180 vcf~ 500;
#X obj 915 180 vcf~ 600;
#X obj 142 285 min 500;
#X obj 142 337 / 500;
#X obj 83 549 *~ 24;
#X obj 39 549 *~ 24;
#X obj 127 493 *~ 3;
#X obj -74 493 *~ 3;
#X obj 351 419 +~;
#X obj 482 419 +~;
#X obj 411 393 osc~ 4;
#X obj 411 419 *~ 30;
#X msg 482 341 \$1 2000;
#X obj 351 471 *~ 8e-06;
#X obj 482 471 *~ 8e-06;
#X obj -74 605 master;
#X obj 476 233 throw~ \$0-l_fx;
#X obj -248 202 autopan;
#X obj -253 233 throw~ \$0-l_fx;
#X obj -253 256 throw~ \$0-r_fx;
#X obj -251 103 sampler-loop;
#X obj -250 132 limiter~;
#X obj -256 67 / 10;
#X obj -132 200 autopan;
#X obj -137 231 throw~ \$0-l_fx;
#X obj -137 254 throw~ \$0-r_fx;
#X obj -134 130 limiter~;
#X obj -140 65 / 5;
#X obj -22 201 autopan;
#X obj -27 232 throw~ \$0-l_fx;
#X obj -27 255 throw~ \$0-r_fx;
#X obj -24 131 limiter~;
#X obj -30 66 / 2;
#X obj 106 199 autopan;
#X obj 101 230 throw~ \$0-l_fx;
#X obj 101 253 throw~ \$0-r_fx;
#X obj 104 129 limiter~;
#X obj 98 64 / 20;
#N canvas 636 39 1044 672 udpsend 0;
#X msg -398 60 disconnect;
#X msg -216 242 info;
#X msg -258 200 channels \$1;
#X obj -412 185 hradio 15 1 0 4 empty empty empty 0 -8 0 10 -4034 -1
-1 2;
#X obj -178 297 udpsend~ 2 512;
#X text -450 200 number of channels to transmit;
#X floatatom -412 216 5 0 0 0 - - -, f 5;
#X obj -288 172 tgl 15 0 empty empty toggle_connection 17 7 0 10 -4034
-1 -1 0 1;
#X msg -419 39 connect 192.168.1.195 8008;
#X msg -398 60 disconnect;
#X msg -216 242 info;
#X msg -258 200 channels \$1;
#X obj -412 185 hradio 15 1 0 4 empty empty empty 0 -8 0 10 -4034 -1
-1 2;
#X obj -178 297 udpsend~ 2 512;
#X text -450 200 number of channels to transmit;
#X floatatom -412 216 5 0 0 0 - - -, f 5;
#X obj -288 172 tgl 15 0 empty empty toggle_connection 17 7 0 10 -4034
-1 -1 0 1;
#X msg -419 39 connect 192.168.1.195 8008;
#X msg 102 74 disconnect;
#X msg 147 119 format float;
#X msg 168 140 format 16bit;
#X msg 189 161 format 8bit;
#X msg 60 32 connect localhost 8008;
#X obj 322 334 tgl 15 0 empty empty empty 17 7 0 10 -4034 -1 -1 1 1
;
#X msg 284 256 info;
#X text 85 255 status info to rightmost outlet;
#X msg 242 214 channels \$1;
#X obj 88 199 hradio 15 1 0 4 empty empty empty 0 -8 0 10 -4034 -1
-1 2;
#X obj 322 311 udpsend~ 2 512;
#X text 340 332 1 = transmitting;
#X text 171 73 stop transmitting;
#X text 50 214 number of channels to transmit;
#X text 44 327 [udpreceive~] and [udpsend~];
#X floatatom 88 230 5 0 0 0 - - -, f 5;
#X obj 212 186 tgl 15 0 empty empty toggle_connection 17 7 0 10 -4034
-1 -1 0 1;
#N canvas 63 270 657 334 multicast 0;
#X msg 91 87 multicast_interface 192.168.0.88;
#X msg 66 62 multicast_interface eth1;
#X text 229 13 send to a multicast address;
#X text 201 38 specify an interface to use with multicast;
#X msg 43 39 multicast_interface 1;
#X text 251 61 by index \, name or address;
#X floatatom 183 112 5 0 256 0 - - -, f 5;
#X obj 165 135 f 1;
#X obj 165 115 bng 15 250 50 0 empty empty empty 17 7 0 10 -4034 -1
-1;
#X text 17 136 set multicast ttl:;
#X msg 165 161 multicast_ttl \$1;
#X msg 215 211 multicast_loopback \$1;
#X obj 215 189 tgl 15 0 empty empty empty 20 7 0 8 -24198 -241291 -1
0 1;
#X text 26 187 enable multicast loopback:;
#X obj 244 257 outlet;
#X msg 18 14 connect 239.200.200.200 8008;
#X text 262 278 [udpreceive~ 8008 2 512 239.200.200.200];
#X text -70 278 Will be received by any udpreceive~ declared like this:
;
#X text 347 295 (2 and 512 may be changed);
#X connect 0 0 14 0;
#X connect 1 0 14 0;
#X connect 4 0 14 0;
#X connect 6 0 7 1;
#X connect 7 0 10 0;
#X connect 8 0 7 0;
#X connect 10 0 14 0;
#X connect 11 0 14 0;
#X connect 12 0 11 0;
#X connect 15 0 14 0;
#X restore 153 294 pd multicast;
#X text 45 342 Author: Martin Peach 2010/10/28;
#X msg 81 53 connect 192.168.1.195 8008;
#X obj 344 267 inlet~;
#X obj 393 266 inlet~;
#X connect 0 0 4 0;
#X connect 1 0 4 0;
#X connect 2 0 4 0;
#X connect 3 0 2 0;
#X connect 3 0 6 0;
#X connect 7 0 4 0;
#X connect 8 0 4 0;
#X connect 9 0 13 0;
#X connect 10 0 13 0;
#X connect 11 0 13 0;
#X connect 12 0 11 0;
#X connect 12 0 15 0;
#X connect 16 0 13 0;
#X connect 17 0 13 0;
#X connect 18 0 28 0;
#X connect 19 0 28 0;
#X connect 20 0 28 0;
#X connect 21 0 28 0;
#X connect 22 0 28 0;
#X connect 24 0 28 0;
#X connect 26 0 28 0;
#X connect 27 0 26 0;
#X connect 27 0 33 0;
#X connect 28 0 23 0;
#X connect 34 0 28 0;
#X connect 35 0 28 0;
#X connect 37 0 28 0;
#X connect 38 0 28 0;
#X connect 39 0 28 1;
#X restore 218 680 pd udpsend;
#X obj 854 599 clip~;
#X obj -135 101 sampler-loop;
#X obj -25 102 sampler-loop;
#X obj 103 100 sampler-loop;
#X obj 345 39 route 1 2 3 4 5 6 7 8 9 10 11 12;
#X connect 0 0 116 1;
#X connect 1 0 0 0;
#X connect 2 0 111 1;
#X connect 3 0 2 0;
#X connect 4 0 112 1;
#X connect 5 0 4 0;
#X connect 6 0 106 1;
#X connect 7 0 6 0;
#X connect 8 0 113 1;
#X connect 9 0 8 0;
#X connect 10 0 114 1;
#X connect 11 0 10 0;
#X connect 12 0 115 1;
#X connect 13 0 12 0;
#X connect 14 0 54 0;
#X connect 14 0 55 0;
#X connect 14 0 56 0;
#X connect 14 0 57 0;
#X connect 14 0 58 0;
#X connect 14 0 59 0;
#X connect 14 0 60 0;
#X connect 14 0 137 0;
#X connect 14 0 142 0;
#X connect 14 0 147 0;
#X connect 14 0 152 0;
#X connect 15 0 67 0;
#X connect 15 0 103 0;
#X connect 16 0 17 0;
#X connect 16 0 31 0;
#X connect 17 0 14 0;
#X connect 18 0 15 0;
#X connect 19 0 28 0;
#X connect 20 0 23 0;
#X connect 21 0 22 0;
#X connect 21 0 24 0;
#X connect 22 0 21 1;
#X connect 23 0 19 0;
#X connect 23 1 25 0;
#X connect 24 0 158 0;
#X connect 25 0 21 1;
#X connect 27 0 29 0;
#X connect 28 0 21 0;
#X connect 28 1 30 0;
#X connect 28 2 39 0;
#X connect 29 0 24 1;
#X connect 30 0 27 0;
#X connect 31 0 20 0;
#X connect 31 0 40 0;
#X connect 31 0 51 0;
#X connect 31 0 68 0;
#X connect 32 0 90 1;
#X connect 32 0 91 1;
#X connect 33 0 78 0;
#X connect 33 1 84 0;
#X connect 35 0 34 0;
#X connect 36 0 34 0;
#X connect 37 0 29 1;
#X connect 38 0 37 0;
#X connect 39 0 38 0;
#X connect 40 0 49 0;
#X connect 41 0 42 0;
#X connect 42 0 43 0;
#X connect 43 0 44 0;
#X connect 44 0 122 0;
#X connect 45 0 121 0;
#X connect 46 0 45 0;
#X connect 47 0 46 0;
#X connect 48 0 47 0;
#X connect 49 0 110 0;
#X connect 49 1 109 0;
#X connect 50 0 41 1;
#X connect 50 0 42 1;
#X connect 50 0 43 1;
#X connect 50 0 44 1;
#X connect 51 0 52 0;
#X connect 52 0 107 0;
#X connect 52 1 108 0;
#X connect 53 0 48 1;
#X connect 53 0 47 1;
#X connect 53 0 46 1;
#X connect 53 0 45 1;
#X connect 54 0 114 0;
#X connect 55 0 113 0;
#X connect 56 0 106 0;
#X connect 57 0 112 0;
#X connect 58 0 111 0;
#X connect 59 0 116 0;
#X connect 60 0 115 0;
#X connect 61 0 77 0;
#X connect 61 1 83 0;
#X connect 62 0 131 0;
#X connect 62 1 85 0;
#X connect 63 0 79 0;
#X connect 63 1 86 0;
#X connect 64 0 80 0;
#X connect 64 1 87 0;
#X connect 65 0 81 0;
#X connect 65 1 88 0;
#X connect 66 0 82 0;
#X connect 66 1 89 0;
#X connect 67 0 71 0;
#X connect 68 0 69 0;
#X connect 69 0 72 0;
#X connect 69 1 73 0;
#X connect 70 0 71 1;
#X connect 70 0 117 0;
#X connect 71 0 14 0;
#X connect 72 0 70 0;
#X connect 73 0 70 0;
#X connect 74 0 34 0;
#X connect 75 0 105 0;
#X connect 76 0 104 0;
#X connect 90 0 130 1;
#X connect 90 0 153 1;
#X connect 90 1 130 0;
#X connect 90 1 153 0;
#X connect 91 0 130 0;
#X connect 91 0 153 0;
#X connect 91 1 130 1;
#X connect 91 1 153 1;
#X connect 92 0 128 0;
#X connect 93 0 95 0;
#X connect 94 0 97 0;
#X connect 95 0 123 0;
#X connect 96 0 95 1;
#X connect 96 0 102 1;
#X connect 97 0 93 0;
#X connect 98 0 96 0;
#X connect 99 0 129 0;
#X connect 100 0 102 0;
#X connect 101 0 127 0;
#X connect 102 0 124 0;
#X connect 103 0 96 1;
#X connect 104 0 48 0;
#X connect 104 0 119 0;
#X connect 105 0 41 0;
#X connect 105 0 120 0;
#X connect 106 0 62 0;
#X connect 107 0 53 0;
#X connect 108 0 53 0;
#X connect 109 0 50 0;
#X connect 110 0 50 0;
#X connect 111 0 61 0;
#X connect 112 0 33 0;
#X connect 113 0 63 0;
#X connect 114 0 64 0;
#X connect 115 0 65 0;
#X connect 116 0 66 0;
#X connect 117 0 118 0;
#X connect 118 0 104 1;
#X connect 118 0 105 1;
#X connect 119 0 130 1;
#X connect 119 0 153 1;
#X connect 120 0 130 0;
#X connect 120 0 153 0;
#X connect 121 0 90 0;
#X connect 122 0 91 0;
#X connect 123 0 92 0;
#X connect 124 0 99 0;
#X connect 125 0 126 0;
#X connect 126 0 123 1;
#X connect 126 0 124 1;
#X connect 127 0 100 0;
#X connect 128 0 91 0;
#X connect 129 0 90 0;
#X connect 132 0 133 0;
#X connect 132 1 134 0;
#X connect 135 0 136 0;
#X connect 136 0 132 0;
#X connect 137 0 135 0;
#X connect 138 0 139 0;
#X connect 138 1 140 0;
#X connect 141 0 138 0;
#X connect 142 0 155 0;
#X connect 143 0 144 0;
#X connect 143 1 145 0;
#X connect 146 0 143 0;
#X connect 147 0 156 0;
#X connect 148 0 149 0;
#X connect 148 1 150 0;
#X connect 151 0 148 0;
#X connect 152 0 157 0;
#X connect 155 0 141 0;
#X connect 156 0 146 0;
#X connect 157 0 151 0;
#X connect 158 0 135 1;
#X connect 158 1 155 1;
#X connect 158 2 156 1;
#X connect 158 3 3 0;
#X connect 158 3 157 1;
#X connect 158 4 5 0;
#X connect 158 5 7 0;
#X connect 158 6 9 0;
#X connect 158 7 11 0;
#X connect 158 8 13 0;
#X connect 158 9 1 0;
