#N canvas 342 167 682 466 10;
#X obj 19 176 vcf~, f 45;
#X obj 152 154 + 20;
#X obj 379 290 *~;
#X obj 394 247 / 10;
#X obj 394 269 + 0.45;
#X obj 19 349 *~ 0.8;
#X obj 286 154 + 1;
#X text 299 326 record the past 1 second of audio to a buffer;
#X obj 213 313 adc~;
#X obj 394 94 inlet;
#X obj 19 95 inlet;
#X obj 152 93 inlet;
#X obj 286 93 inlet;
#X text 428 96 feedback level;
#X text 188 94 center freq;
#X text 322 95 filter q;
#X text 57 95 buffer point;
#X obj 19 383 throw~ buffWrite;
#X obj 19 153 delread4~ \$0-piBuffer;
#X obj 190 356 delwrite~ \$0-piBuffer 1000;
#X connect 0 0 2 0;
#X connect 0 0 5 0;
#X connect 1 0 0 1;
#X connect 2 0 19 0;
#X connect 3 0 4 0;
#X connect 4 0 2 1;
#X connect 5 0 17 0;
#X connect 6 0 0 2;
#X connect 8 0 19 0;
#X connect 9 0 3 0;
#X connect 10 0 18 0;
#X connect 11 0 1 0;
#X connect 12 0 6 0;
#X connect 18 0 0 0;
