#N canvas 521 42 1010 715 12;
#X obj 45 249 hip~ 5;
#X floatatom 46 43 0 0 0 0 - - -;
#X text 85 49 <-- frequency (Hz.);
#X floatatom 132 87 0 0 0 0 - - -;
#X obj 132 114 * 441;
#X obj 110 163 +~ 1;
#X text 171 86 <-- chunk size (100ths of a second);
#X obj 45 139 -~ 0.5;
#X obj 45 189 cos~;
#X obj 45 222 *~;
#X obj 46 77 phasor~;
#X obj 45 164 *~ 0.5;
#X obj 110 138 *~;
#X obj 110 189 tabread4~ table18;
#X obj 21 10 inlet;
#X obj 273 40 inlet;
#X obj 173 296 snapshot~;
#X floatatom 178 323 0 0 0 0 - - -;
#X msg 269 283 bang;
#X msg 274 307 set 5;
#X text 312 282 bang -- take one snapshot;
#X text 328 307 set -- set value (which is reset next DSP block.);
#X obj 40 289 clip~ -0.5 0.5;
#X obj 46 413 autopan;
#X obj 44 343 limiter~;
#X obj 41 444 throw~ l_fx;
#X obj 41 467 throw~ r_fx;
#X connect 0 0 22 0;
#X connect 1 0 10 0;
#X connect 3 0 4 0;
#X connect 4 0 12 1;
#X connect 5 0 13 0;
#X connect 7 0 11 0;
#X connect 8 0 9 0;
#X connect 9 0 0 0;
#X connect 10 0 7 0;
#X connect 10 0 12 0;
#X connect 11 0 8 0;
#X connect 12 0 5 0;
#X connect 13 0 9 1;
#X connect 14 0 1 0;
#X connect 15 0 3 0;
#X connect 16 0 17 0;
#X connect 18 0 16 0;
#X connect 19 0 16 0;
#X connect 22 0 16 0;
#X connect 22 0 24 0;
#X connect 23 0 25 0;
#X connect 23 1 26 0;
#X connect 24 0 23 0;
