#N canvas 723 209 1249 778 10;
#X obj 147 189 *~;
#X obj 165 162 vline~;
#X obj 107 162 vline~;
#X obj 147 216 outlet~;
#X obj 84 2 loadbang;
#X msg 107 135 \$1 10;
#X msg 165 135 \$1 \, 0 5;
#X obj 84 29 metro;
#X obj 128 29 inlet;
#X obj 95 55 random;
#X obj 165 81 random 50;
#X obj 83 108 adc~;
#X obj 84 81 random \$1;
#X obj 83 189 vcf~ \$2;
#X connect 0 0 3 0;
#X connect 1 0 0 1;
#X connect 2 0 13 1;
#X connect 4 0 7 0;
#X connect 5 0 2 0;
#X connect 6 0 1 0;
#X connect 7 0 9 0;
#X connect 7 0 10 0;
#X connect 7 0 12 0;
#X connect 8 0 9 1;
#X connect 9 0 7 1;
#X connect 10 0 6 0;
#X connect 11 0 13 0;
#X connect 12 0 5 0;
#X connect 13 1 0 0;
