#N canvas 688 327 388 294 10;
#X obj 122 85 mtof;
#X obj 10 140 autopan, f 17;
#X text 311 22 q;
#X text 160 19 midi note;
#X obj 10 113 vcf~, f 38;
#X obj 10 166 throw~ l_fx;
#X obj 109 166 throw~ r_fx;
#X obj 10 85 stream~ \$1 \$2;
#X obj 235 87 random 60;
#X obj 235 21 r seedChange;
#X obj 10 19 r LFO_freq;
#X obj 122 58 random 127;
#X connect 0 0 4 1;
#X connect 1 0 5 0;
#X connect 1 1 6 0;
#X connect 4 0 1 0;
#X connect 7 0 4 0;
#X connect 8 0 4 2;
#X connect 9 0 8 0;
#X connect 9 0 11 0;
#X connect 10 0 7 0;
#X connect 11 0 0 0;
