#N canvas 491 43 662 407 10;
#X obj 280 205 hsl 128 15 0 1 0 1 empty empty empty -2 -8 0 10 -262144
-1 -1 10000 1;
#X obj 50 148 random 2;
#X obj 12 148 lop~;
#X obj 12 174 lop~;
#X obj 12 200 hip~;
#X obj 12 226 hip~;
#X obj 213 226 hip~;
#X obj 213 200 hip~;
#X obj 213 174 lop~;
#X obj 213 148 lop~;
#X obj 50 174 sel 0 1;
#X obj 69 252 line;
#X obj 122 148 random 2;
#X obj 122 174 sel 0 1;
#X obj 141 252 line;
#X obj 12 308 freezeverb 299;
#X obj 213 122 *~;
#X obj 12 122 *~;
#X msg 122 226 300 2500;
#X msg 141 200 1500 2500;
#X msg 69 200 1500 2500;
#X msg 50 226 300 2500;
#X obj 228 44 min 500;
#X obj 228 96 / 500;
#X obj 197 316 *~ 24;
#X obj 147 308 *~ 24;
#X obj 213 252 *~ 3;
#X obj 12 252 *~ 3;
#X obj 13 76 inlet~;
#X obj 182 56 inlet~;
#X obj 229 6 inlet;
#X obj 12 338 outlet~;
#X obj 93 338 outlet~;
#X obj 272 333 outlet~;
#X obj 353 333 outlet~;
#X obj 147 337 outlet~;
#X obj 197 338 outlet~;
#X obj 271 307 freezeverb 300;
#X obj 58 75 r seedChange;
#X connect 0 0 15 1;
#X connect 0 0 37 1;
#X connect 1 0 10 0;
#X connect 2 0 3 0;
#X connect 3 0 4 0;
#X connect 4 0 5 0;
#X connect 5 0 27 0;
#X connect 6 0 26 0;
#X connect 7 0 6 0;
#X connect 8 0 7 0;
#X connect 9 0 8 0;
#X connect 10 0 21 0;
#X connect 10 1 20 0;
#X connect 11 0 2 1;
#X connect 11 0 3 1;
#X connect 11 0 4 1;
#X connect 11 0 5 1;
#X connect 12 0 13 0;
#X connect 13 0 18 0;
#X connect 13 1 19 0;
#X connect 14 0 9 1;
#X connect 14 0 8 1;
#X connect 14 0 7 1;
#X connect 14 0 6 1;
#X connect 15 0 31 0;
#X connect 15 1 32 0;
#X connect 16 0 9 0;
#X connect 16 0 24 0;
#X connect 17 0 2 0;
#X connect 17 0 25 0;
#X connect 18 0 14 0;
#X connect 19 0 14 0;
#X connect 20 0 11 0;
#X connect 21 0 11 0;
#X connect 22 0 23 0;
#X connect 23 0 16 1;
#X connect 23 0 17 1;
#X connect 24 0 36 0;
#X connect 25 0 35 0;
#X connect 26 0 37 0;
#X connect 27 0 15 0;
#X connect 28 0 17 0;
#X connect 29 0 16 0;
#X connect 30 0 22 0;
#X connect 37 0 33 0;
#X connect 37 1 34 0;
#X connect 38 0 1 0;
#X connect 38 0 12 0;
