#N canvas 532 23 265 423 12;
#X obj 9 202 hip~ 5;
#X obj 9 138 cos~;
#X obj 9 170 *~;
#X obj 9 43 phasor~;
#X obj 9 328 autopan, f 18;
#X obj 9 359 throw~ l_fx;
#X obj 150 356 throw~ r_fx;
#X obj 49 138 delread4~ piBuffer10;
#X obj 9 12 inlet;
#X obj 49 103 *~ 5000;
#X obj 9 254 clip~ -0.5 0.5;
#X connect 0 0 10 0;
#X connect 1 0 2 0;
#X connect 2 0 0 0;
#X connect 3 0 1 0;
#X connect 3 0 9 0;
#X connect 4 0 5 0;
#X connect 4 1 6 0;
#X connect 7 0 2 1;
#X connect 8 0 3 0;
#X connect 9 0 7 0;
#X connect 10 0 4 0;
