#N canvas 243 300 1161 829 10;
#X obj 25 342 vsl 10 50 -3 3 0 0 empty empty empty 0 -9 0 10 -262144
-1 -1 2613 1;
#X obj 25 198 r seedChange;
#X obj 25 317 line;
#X obj 133 342 vsl 10 50 0 10000 0 0 empty empty empty 0 -9 0 10 -262144
-1 -1 1419 1;
#X obj 133 228 random 10000;
#X obj 133 317 line;
#X obj 25 227 random 700;
#X obj 25 249 - 300;
#X obj 25 271 / 1000;
#X msg 25 294 \$1 1500;
#X msg 133 295 \$1 1500;
#X obj 130 137 s seedChange;
#X obj 130 112 bng 15 250 50 0 empty empty press_to_randomize 17 7
0 10 -262144 -1 -1;
#X obj 130 88 metro 10000, f 26;
#X obj 130 68 tgl 15 0 empty empty empty 17 7 0 10 -262144 -1 -1 0
1;
#X obj 309 43 r seedChange;
#X obj 309 65 random 20000;
#X obj 130 40 r autoRandom;
#X obj 12 41 loadbang;
#X msg 12 63 \; autoRandom 1;
#X obj 25 400 s loop1_speed;
#X obj 133 400 s loop1_length;
#X obj 239 342 vsl 10 50 -3 3 0 0 empty empty empty 0 -9 0 10 -262144
-1 -1 2466 1;
#X obj 239 317 line;
#X obj 347 342 vsl 10 50 0 10000 0 0 empty empty empty 0 -9 0 10 -262144
-1 -1 1164 1;
#X obj 347 228 random 10000;
#X obj 347 317 line;
#X obj 239 227 random 700;
#X obj 239 249 - 300;
#X obj 239 271 / 1000;
#X msg 239 294 \$1 1500;
#X msg 347 295 \$1 1500;
#X obj 456 343 vsl 10 50 -3 3 0 0 empty empty empty 0 -9 0 10 -262144
-1 -1 2539 1;
#X obj 456 318 line;
#X obj 564 343 vsl 10 50 0 10000 0 0 empty empty empty 0 -9 0 10 -262144
-1 -1 4557 1;
#X obj 564 229 random 10000;
#X obj 564 318 line;
#X obj 456 228 random 700;
#X obj 456 250 - 300;
#X obj 456 272 / 1000;
#X msg 456 295 \$1 1500;
#X msg 564 296 \$1 1500;
#X obj 22 531 vsl 10 50 0 500 0 0 empty empty empty 0 -9 0 10 -262144
-1 -1 3450 1;
#X obj 22 426 r seedChange;
#X obj 211 527 vsl 10 50 0 500 0 0 empty empty empty 0 -9 0 10 -262144
-1 -1 2195 1;
#X obj 306 529 vsl 10 50 0 5 0 0 empty empty empty 0 -9 0 10 -262144
-1 -1 2940 1;
#X obj 116 529 vsl 10 50 0 16000 0 0 empty empty empty 0 -9 0 10 -262144
-1 -1 4003 1;
#X obj 22 508 line;
#X obj 116 507 line;
#X obj 211 505 line;
#X obj 306 506 line;
#X obj 211 459 random 500;
#X obj 116 462 random 16000;
#X obj 22 463 random 1000;
#X msg 22 484 \$1 1500;
#X msg 116 483 \$1 1500;
#X msg 211 481 \$1 1500;
#X msg 306 482 \$1 1500;
#X obj 22 589 s mach1_loc;
#X obj 116 589 s mach1_freq;
#X obj 211 589 s mach1_q;
#X obj 306 589 s mach1_fdbk;
#X obj 600 527 vsl 10 50 0 500 0 0 empty empty empty 0 -9 0 10 -262144
-1 -1 1362 1;
#X obj 695 529 vsl 10 50 0 5 0 0 empty empty empty 0 -9 0 10 -262144
-1 -1 2940 1;
#X obj 505 529 vsl 10 50 0 16000 0 0 empty empty empty 0 -9 0 10 -262144
-1 -1 3372 1;
#X obj 411 508 line;
#X obj 505 507 line;
#X obj 600 505 line;
#X obj 695 506 line;
#X obj 600 459 random 500;
#X obj 505 462 random 16000;
#X obj 411 463 random 1000;
#X msg 411 484 \$1 1500;
#X msg 505 483 \$1 1500;
#X msg 600 481 \$1 1500;
#X msg 695 482 \$1 1500;
#X obj 411 530 vsl 10 50 0 500 0 0 empty empty empty 0 -9 0 10 -262144
-1 -1 4900 1;
#X obj 411 589 s mach2_loc;
#X obj 505 589 s mach2_freq;
#X obj 600 589 s mach2_q;
#X obj 695 589 s mach2_fdbk;
#X obj 21 720 vsl 10 50 0 500 0 0 empty empty empty 0 -9 0 10 -262144
-1 -1 4900 1;
#X obj 21 615 r seedChange;
#X obj 210 716 vsl 10 50 0 500 0 0 empty empty empty 0 -9 0 10 -262144
-1 -1 1960 1;
#X obj 305 718 vsl 10 50 0 5 0 0 empty empty empty 0 -9 0 10 -262144
-1 -1 3920 1;
#X obj 115 718 vsl 10 50 0 16000 0 0 empty empty empty 0 -9 0 10 -262144
-1 -1 3776 1;
#X obj 21 697 line;
#X obj 115 696 line;
#X obj 210 694 line;
#X obj 305 695 line;
#X obj 210 648 random 500;
#X obj 115 651 random 16000;
#X obj 21 652 random 1000;
#X msg 21 673 \$1 1500;
#X msg 115 672 \$1 1500;
#X msg 210 670 \$1 1500;
#X msg 305 671 \$1 1500;
#X obj 599 716 vsl 10 50 0 500 0 0 empty empty empty 0 -9 0 10 -262144
-1 -1 1499 1;
#X obj 694 718 vsl 10 50 0 5 0 0 empty empty empty 0 -9 0 10 -262144
-1 -1 980 1;
#X obj 504 718 vsl 10 50 0 16000 0 0 empty empty empty 0 -9 0 10 -262144
-1 -1 4353 1;
#X obj 410 697 line;
#X obj 504 696 line;
#X obj 599 694 line;
#X obj 694 695 line;
#X obj 599 648 random 500;
#X obj 504 651 random 16000;
#X obj 410 652 random 1000;
#X msg 410 673 \$1 1500;
#X msg 504 672 \$1 1500;
#X msg 599 670 \$1 1500;
#X msg 694 671 \$1 1500;
#X obj 410 719 vsl 10 50 0 500 0 0 empty empty empty 0 -9 0 10 -262144
-1 -1 4900 1;
#X obj 21 778 s mach3_loc;
#X obj 115 778 s mach3_freq;
#X obj 210 778 s mach3_q;
#X obj 305 778 s mach3_fdbk;
#X obj 410 778 s mach4_loc;
#X obj 504 778 s mach4_freq;
#X obj 599 778 s mach4_q;
#X obj 694 778 s mach4_fdbk;
#X obj 239 400 s loop2_speed;
#X obj 347 400 s loop2_length;
#X obj 456 401 s loop3_speed;
#X obj 564 401 s loop3_length;
#X obj 472 146 vsl 10 50 -3 3 0 0 empty empty empty 0 -9 0 10 -262144
-1 -1 2489 1;
#X obj 472 2 r seedChange;
#X obj 472 121 line;
#X obj 580 146 vsl 10 50 0 10000 0 0 empty empty empty 0 -9 0 10 -262144
-1 -1 408 1;
#X obj 580 32 random 10000;
#X obj 580 121 line;
#X obj 472 31 random 700;
#X obj 472 53 - 300;
#X obj 472 75 / 1000;
#X msg 472 98 \$1 1500;
#X msg 580 99 \$1 1500;
#X obj 686 146 vsl 10 50 -3 3 0 0 empty empty empty 0 -9 0 10 -262144
-1 -1 2773 1;
#X obj 686 121 line;
#X obj 794 146 vsl 10 50 0 10000 0 0 empty empty empty 0 -9 0 10 -262144
-1 -1 1332 1;
#X obj 794 32 random 10000;
#X obj 794 121 line;
#X obj 686 31 random 700;
#X obj 686 53 - 300;
#X obj 686 75 / 1000;
#X msg 686 98 \$1 1500;
#X msg 794 99 \$1 1500;
#X obj 903 147 vsl 10 50 -3 3 0 0 empty empty empty 0 -9 0 10 -262144
-1 -1 2397 1;
#X obj 903 122 line;
#X obj 1011 147 vsl 10 50 0 10000 0 0 empty empty empty 0 -9 0 10 -262144
-1 -1 3809 1;
#X obj 1011 33 random 10000;
#X obj 1011 122 line;
#X obj 903 32 random 700;
#X obj 903 54 - 300;
#X obj 903 76 / 1000;
#X msg 903 99 \$1 1500;
#X msg 1011 100 \$1 1500;
#X obj 472 204 s loop4_speed;
#X obj 580 204 s loop4_length;
#X obj 686 204 s loop5_speed;
#X obj 794 204 s loop5_length;
#X obj 903 205 s loop6_speed;
#X obj 1011 205 s loop6_length;
#X obj 306 461 random 10;
#X obj 695 461 random 10;
#X obj 694 650 random 10;
#X obj 305 650 random 10;
#X connect 0 0 20 0;
#X connect 1 0 4 0;
#X connect 1 0 6 0;
#X connect 1 0 27 0;
#X connect 1 0 25 0;
#X connect 1 0 37 0;
#X connect 1 0 35 0;
#X connect 2 0 0 0;
#X connect 3 0 21 0;
#X connect 4 0 10 0;
#X connect 5 0 3 0;
#X connect 6 0 7 0;
#X connect 7 0 8 0;
#X connect 8 0 9 0;
#X connect 9 0 2 0;
#X connect 10 0 5 0;
#X connect 12 0 11 0;
#X connect 13 0 12 0;
#X connect 14 0 13 0;
#X connect 15 0 16 0;
#X connect 16 0 13 1;
#X connect 17 0 14 0;
#X connect 18 0 19 0;
#X connect 22 0 120 0;
#X connect 23 0 22 0;
#X connect 24 0 121 0;
#X connect 25 0 31 0;
#X connect 26 0 24 0;
#X connect 27 0 28 0;
#X connect 28 0 29 0;
#X connect 29 0 30 0;
#X connect 30 0 23 0;
#X connect 31 0 26 0;
#X connect 32 0 122 0;
#X connect 33 0 32 0;
#X connect 34 0 123 0;
#X connect 35 0 41 0;
#X connect 36 0 34 0;
#X connect 37 0 38 0;
#X connect 38 0 39 0;
#X connect 39 0 40 0;
#X connect 40 0 33 0;
#X connect 41 0 36 0;
#X connect 42 0 58 0;
#X connect 43 0 53 0;
#X connect 43 0 52 0;
#X connect 43 0 51 0;
#X connect 43 0 71 0;
#X connect 43 0 70 0;
#X connect 43 0 69 0;
#X connect 43 0 161 0;
#X connect 43 0 162 0;
#X connect 44 0 60 0;
#X connect 45 0 61 0;
#X connect 46 0 59 0;
#X connect 47 0 42 0;
#X connect 48 0 46 0;
#X connect 49 0 44 0;
#X connect 50 0 45 0;
#X connect 51 0 56 0;
#X connect 52 0 55 0;
#X connect 53 0 54 0;
#X connect 54 0 47 0;
#X connect 55 0 48 0;
#X connect 56 0 49 0;
#X connect 57 0 50 0;
#X connect 62 0 79 0;
#X connect 63 0 80 0;
#X connect 64 0 78 0;
#X connect 65 0 76 0;
#X connect 66 0 64 0;
#X connect 67 0 62 0;
#X connect 68 0 63 0;
#X connect 69 0 74 0;
#X connect 70 0 73 0;
#X connect 71 0 72 0;
#X connect 72 0 65 0;
#X connect 73 0 66 0;
#X connect 74 0 67 0;
#X connect 75 0 68 0;
#X connect 76 0 77 0;
#X connect 81 0 112 0;
#X connect 82 0 92 0;
#X connect 82 0 91 0;
#X connect 82 0 90 0;
#X connect 82 0 106 0;
#X connect 82 0 105 0;
#X connect 82 0 104 0;
#X connect 82 0 163 0;
#X connect 82 0 164 0;
#X connect 83 0 114 0;
#X connect 84 0 115 0;
#X connect 85 0 113 0;
#X connect 86 0 81 0;
#X connect 87 0 85 0;
#X connect 88 0 83 0;
#X connect 89 0 84 0;
#X connect 90 0 95 0;
#X connect 91 0 94 0;
#X connect 92 0 93 0;
#X connect 93 0 86 0;
#X connect 94 0 87 0;
#X connect 95 0 88 0;
#X connect 96 0 89 0;
#X connect 97 0 118 0;
#X connect 98 0 119 0;
#X connect 99 0 117 0;
#X connect 100 0 111 0;
#X connect 101 0 99 0;
#X connect 102 0 97 0;
#X connect 103 0 98 0;
#X connect 104 0 109 0;
#X connect 105 0 108 0;
#X connect 106 0 107 0;
#X connect 107 0 100 0;
#X connect 108 0 101 0;
#X connect 109 0 102 0;
#X connect 110 0 103 0;
#X connect 111 0 116 0;
#X connect 124 0 155 0;
#X connect 125 0 128 0;
#X connect 125 0 130 0;
#X connect 125 0 140 0;
#X connect 125 0 138 0;
#X connect 125 0 150 0;
#X connect 125 0 148 0;
#X connect 126 0 124 0;
#X connect 127 0 156 0;
#X connect 128 0 134 0;
#X connect 129 0 127 0;
#X connect 130 0 131 0;
#X connect 131 0 132 0;
#X connect 132 0 133 0;
#X connect 133 0 126 0;
#X connect 134 0 129 0;
#X connect 135 0 157 0;
#X connect 136 0 135 0;
#X connect 137 0 158 0;
#X connect 138 0 144 0;
#X connect 139 0 137 0;
#X connect 140 0 141 0;
#X connect 141 0 142 0;
#X connect 142 0 143 0;
#X connect 143 0 136 0;
#X connect 144 0 139 0;
#X connect 145 0 159 0;
#X connect 146 0 145 0;
#X connect 147 0 160 0;
#X connect 148 0 154 0;
#X connect 149 0 147 0;
#X connect 150 0 151 0;
#X connect 151 0 152 0;
#X connect 152 0 153 0;
#X connect 153 0 146 0;
#X connect 154 0 149 0;
#X connect 161 0 57 0;
#X connect 162 0 75 0;
#X connect 163 0 110 0;
#X connect 164 0 96 0;
