#N canvas 250 23 883 778 10;
#X obj 381 454 early_reflection_delay_line;
#X obj 8 -88 loadbang;
#X obj 88 -88 inlet~;
#X obj 8 -62 f \$1;
#X obj 120 652 outlet~;
#X obj 176 652 outlet~;
#X obj 14 444 +~;
#X obj 46 444 +~;
#X obj 14 470 +~;
#X obj 46 470 -~;
#X obj 78 470 +~;
#X obj 110 470 -~;
#X obj 14 496 +~;
#X obj 110 496 -~;
#X obj 46 496 +~;
#X obj 78 496 -~;
#X obj 14 522 *~;
#X obj 46 522 *~;
#X obj 78 522 *~;
#X obj 110 522 *~;
#X obj 14 548 delwrite~ \$0-loop-delay_1 300;
#X obj 46 574 delwrite~ \$0-loop-delay_2 300;
#X obj 78 600 delwrite~ \$0-loop-delay_3 300;
#X obj 110 626 delwrite~ \$0-loop-delay_4 300;
#X obj 44 218 osc~;
#X obj 44 166 random 100;
#X obj 29 270 +~;
#X obj 381 168 early_reflection_delay_line;
#X obj 381 194 early_reflection_delay_line;
#X obj 381 220 early_reflection_delay_line;
#X obj 381 246 early_reflection_delay_line;
#X obj 381 272 early_reflection_delay_line;
#X obj 381 298 early_reflection_delay_line;
#X obj 381 324 early_reflection_delay_line;
#X obj 381 350 early_reflection_delay_line;
#X obj 381 376 early_reflection_delay_line;
#X obj 381 402 early_reflection_delay_line;
#X obj 381 428 early_reflection_delay_line;
#X obj 118 218 osc~;
#X obj 118 166 random 100;
#X obj 103 270 +~;
#X obj 192 218 osc~;
#X obj 192 166 random 100;
#X obj 177 270 +~;
#X obj 266 218 osc~;
#X obj 266 166 random 100;
#X obj 251 270 +~;
#X obj 125 444 vd~ \$0-loop-delay_4;
#X obj 78 418 vd~ \$0-loop-delay_3;
#X obj 61 392 vd~ \$0-loop-delay_2;
#X obj 29 366 vd~ \$0-loop-delay_1;
#X obj 44 192 / 25;
#X obj 118 192 / 25;
#X obj 192 192 / 25;
#X obj 266 192 / 25;
#X obj 266 244 /~ 4;
#X obj 192 244 /~ 4;
#X obj 118 244 /~ 4;
#X obj 44 244 /~ 4;
#X obj 88 -62 hip~ 300;
#X obj 44 110 r seedChange;
#X obj 283 392 r seedChange;
#X obj 283 444 / 1000;
#X obj 283 418 random 300;
#X obj 8 -10 route 0 1 2 3 4 5 6 7 8 9 10 11 12 13 14 15 16;
#X obj 8 -36 delay_time_counter 17;
#X obj 377 494 /~ 48;
#X obj 536 494 /~ 48;
#X connect 0 0 66 0;
#X connect 0 1 67 0;
#X connect 1 0 3 0;
#X connect 2 0 59 0;
#X connect 3 0 65 0;
#X connect 6 0 9 0;
#X connect 6 0 8 0;
#X connect 6 0 4 0;
#X connect 7 0 9 1;
#X connect 7 0 8 1;
#X connect 7 0 5 0;
#X connect 8 0 15 0;
#X connect 8 0 12 0;
#X connect 9 0 13 0;
#X connect 9 0 14 0;
#X connect 10 0 15 1;
#X connect 10 0 12 1;
#X connect 11 0 13 1;
#X connect 11 0 14 1;
#X connect 12 0 16 0;
#X connect 13 0 19 0;
#X connect 14 0 17 0;
#X connect 15 0 18 0;
#X connect 16 0 20 0;
#X connect 17 0 21 0;
#X connect 18 0 22 0;
#X connect 19 0 23 0;
#X connect 24 0 58 0;
#X connect 25 0 51 0;
#X connect 26 0 50 0;
#X connect 27 0 28 0;
#X connect 27 1 28 1;
#X connect 28 0 29 0;
#X connect 28 1 29 1;
#X connect 29 0 30 0;
#X connect 29 1 30 1;
#X connect 30 0 31 0;
#X connect 30 1 31 1;
#X connect 31 0 32 0;
#X connect 31 1 32 1;
#X connect 32 0 33 0;
#X connect 32 1 33 1;
#X connect 33 0 34 0;
#X connect 33 1 34 1;
#X connect 34 0 35 0;
#X connect 34 1 35 1;
#X connect 35 0 36 0;
#X connect 35 1 36 1;
#X connect 36 0 37 0;
#X connect 36 1 37 1;
#X connect 37 0 0 0;
#X connect 37 1 0 1;
#X connect 38 0 57 0;
#X connect 39 0 52 0;
#X connect 40 0 49 0;
#X connect 41 0 56 0;
#X connect 42 0 53 0;
#X connect 43 0 48 0;
#X connect 44 0 55 0;
#X connect 45 0 54 0;
#X connect 46 0 47 0;
#X connect 47 0 11 1;
#X connect 47 0 10 1;
#X connect 48 0 10 0;
#X connect 48 0 11 0;
#X connect 49 0 7 1;
#X connect 50 0 6 1;
#X connect 51 0 24 0;
#X connect 52 0 38 0;
#X connect 53 0 41 0;
#X connect 54 0 44 0;
#X connect 55 0 46 1;
#X connect 56 0 43 1;
#X connect 57 0 40 1;
#X connect 58 0 26 1;
#X connect 59 0 27 1;
#X connect 59 0 27 0;
#X connect 60 0 25 0;
#X connect 60 0 39 0;
#X connect 60 0 42 0;
#X connect 60 0 45 0;
#X connect 61 0 63 0;
#X connect 62 0 19 1;
#X connect 62 0 18 1;
#X connect 62 0 17 1;
#X connect 62 0 16 1;
#X connect 63 0 62 0;
#X connect 64 0 26 0;
#X connect 64 1 40 0;
#X connect 64 2 43 0;
#X connect 64 3 46 0;
#X connect 64 4 27 2;
#X connect 64 5 28 2;
#X connect 64 6 29 2;
#X connect 64 7 30 2;
#X connect 64 8 31 2;
#X connect 64 9 32 2;
#X connect 64 10 33 2;
#X connect 64 11 34 2;
#X connect 64 12 35 2;
#X connect 64 13 36 2;
#X connect 64 14 37 2;
#X connect 64 15 0 2;
#X connect 65 0 64 0;
#X connect 66 0 6 0;
#X connect 67 0 7 0;
