#N canvas 355 35 710 642 10;
#X obj 11 170 catch~ l_fx;
#X obj 127 170 catch~ r_fx;
#X obj 441 209 loadbang;
#X obj 441 165 catch~ buffWrite;
#X obj 442 116 *~, f 10;
#X obj 509 91 sig~;
#X obj 509 29 vsl 10 50 0 1 0 0 empty mic_input_level mic_input_level
0 -9 0 10 -262144 -1 -1 4900 1;
#X obj 442 92 adc~ 1;
#X obj 442 138 s~ micInput;
#X text 9 5 USE HEADPHONES. This patch uses live microphone feedback
and will accumulate quickly and dangerously if monitored through speakers!
Each [piMachine3] object takes global live mic input and writes its
own (unique/distinct) one-second buffer \, while simulataneouls writing
to a larger \, global five-second buffer. The [bufferLoop] objects
access the global buffer at various points. The [piMachine3] objects'
individual buffers aren't heard directly \; only the [bufferLoop] objects
send signal to the output. So we're hearing X # of [piMachine3] buffers
and their feedback loops collapsed into a global buffer.;
#X obj 127 198 freezeverb, f 13;
#X obj 11 198 freezeverb, f 13;
#X obj 441 188 delwrite~ piBuffer10 10000;
#X obj 167 238 /~ 2;
#X obj 175 286 tgl 15 0 empty empty empty 17 7 0 10 -262144 -1 -1 0
1;
#X obj 441 326 bufferLoop, f 15;
#X obj 213 239 r startUDP;
#X obj 175 263 streamout~;
#X obj 441 300 r loop1_speed;
#X obj 543 300 r loop1_length;
#X obj 441 376 bufferLoop, f 15;
#X obj 441 350 r loop2_speed;
#X obj 543 350 r loop2_length;
#X obj 441 424 bufferLoop, f 15;
#X obj 441 474 bufferLoop, f 15;
#X obj 441 398 r loop3_speed;
#X obj 543 398 r loop3_length;
#X obj 441 448 r loop4_speed;
#X obj 543 448 r loop4_length;
#X obj 442 521 bufferLoop, f 15;
#X obj 442 571 bufferLoop, f 15;
#X obj 442 495 r loop5_speed;
#X obj 544 495 r loop5_length;
#X obj 442 545 r loop6_speed;
#X obj 544 545 r loop6_length;
#X obj 12 314 r mach1_loc;
#X obj 106 314 r mach1_freq;
#X obj 201 313 r mach1_q;
#X obj 296 313 r mach1_fdbk;
#X obj 12 500 piMachine3, f 41;
#X obj 12 372 r mach2_loc;
#X obj 11 424 r mach3_loc;
#X obj 12 475 r mach4_loc;
#X obj 106 475 r mach4_freq;
#X obj 201 474 r mach4_q;
#X obj 296 474 r mach4_fdbk;
#X obj 295 423 r mach3_fdbk;
#X obj 200 423 r mach3_q;
#X obj 105 424 r mach3_freq;
#X obj 106 372 r mach2_freq;
#X obj 201 371 r mach2_q;
#X obj 296 371 r mach2_fdbk;
#X obj 21 260 master;
#X msg 441 231 \; pd dsp 1 \; mic_input_level 1 \; dB_master_level
100 \;;
#X obj 305 170 control;
#X obj 305 194 netControl;
#X obj 12 339 piMachine3, f 41;
#X obj 12 397 piMachine3, f 41;
#X obj 11 449 piMachine3, f 41;
#X connect 0 0 11 0;
#X connect 1 0 10 0;
#X connect 2 0 53 0;
#X connect 3 0 12 0;
#X connect 4 0 8 0;
#X connect 5 0 4 1;
#X connect 6 0 5 0;
#X connect 7 0 4 0;
#X connect 10 0 13 0;
#X connect 10 0 52 1;
#X connect 11 0 13 0;
#X connect 11 0 52 0;
#X connect 16 0 17 0;
#X connect 17 0 14 0;
#X connect 18 0 15 0;
#X connect 19 0 15 1;
#X connect 21 0 20 0;
#X connect 22 0 20 1;
#X connect 25 0 23 0;
#X connect 26 0 23 1;
#X connect 27 0 24 0;
#X connect 28 0 24 1;
#X connect 31 0 29 0;
#X connect 32 0 29 1;
#X connect 33 0 30 0;
#X connect 34 0 30 1;
#X connect 35 0 56 0;
#X connect 36 0 56 1;
#X connect 37 0 56 2;
#X connect 38 0 56 3;
#X connect 40 0 57 0;
#X connect 41 0 58 0;
#X connect 42 0 39 0;
#X connect 43 0 39 1;
#X connect 44 0 39 2;
#X connect 45 0 39 3;
#X connect 46 0 58 3;
#X connect 47 0 58 2;
#X connect 48 0 58 1;
#X connect 49 0 57 1;
#X connect 50 0 57 2;
#X connect 51 0 57 3;
