#N canvas 0 23 1440 830 10;
#X obj 441 213 catch~ l_fx;
#X obj 529 213 catch~ r_fx;
#X obj 609 164 s seedChange;
#X obj 609 13 loadbang;
#X obj 609 139 bng 15 250 50 0 empty empty press_to_randomize 17 7
0 10 -262144 -1 -1;
#X obj 609 115 metro 10000;
#X obj 609 95 tgl 15 0 empty empty empty 17 7 0 10 -262144 -1 -1 1
1;
#X obj 441 165 catch~ buffWrite;
#X obj 17 422 vsl 10 50 0 500 0 0 empty empty empty 0 -9 0 10 -262144
-1 -1 3479 1;
#X obj 17 330 r seedChange;
#X obj 111 330 r seedChange;
#X obj 206 327 r seedChange;
#X obj 301 327 r seedChange;
#X obj 301 352 random 5;
#X obj 206 418 vsl 10 50 0 500 0 0 empty empty empty 0 -9 0 10 -262144
-1 -1 3244 1;
#X obj 301 420 vsl 10 50 0 5 0 0 empty empty empty 0 -9 0 10 -262144
-1 -1 1960 1;
#X obj 111 420 vsl 10 50 0 16000 0 0 empty empty empty 0 -9 0 10 -262144
-1 -1 3208 1;
#X obj 17 484 piMachine3, f 41;
#X obj 17 399 line;
#X obj 111 398 line;
#X obj 206 396 line;
#X obj 301 397 line;
#X msg 206 372 \$1 500;
#X msg 301 373 \$1 500;
#X msg 111 374 \$1 500;
#X msg 17 375 \$1 500;
#X obj 441 188 delwrite~ piBuffer10 5000;
#X obj 206 350 random 500;
#X obj 441 239 master, f 13;
#X text 14 312 buffer point;
#X text 109 313 filter freq;
#X text 203 312 filter q;
#X text 298 312 feedback level;
#X obj 111 353 random 16000;
#X obj 17 354 random 1000;
#X obj 442 116 *~, f 10;
#X obj 509 91 sig~;
#X obj 509 29 vsl 10 50 0 1 0 0 empty mic_input_level mic_input_level
0 -9 0 10 -262144 -1 -1 4410 1;
#X obj 442 92 adc~ 1;
#X obj 442 138 s~ micInput;
#X text 14 503 note: a high filter q will make the selected frequency
ring at a discernable pitch (making pitch sequences / melodies harmonies
possible).;
#X obj 15 683 vsl 10 50 0 500 0 0 empty empty empty 0 -9 0 10 -262144
-1 -1 2724 1;
#X obj 15 591 r seedChange;
#X obj 109 591 r seedChange;
#X obj 204 588 r seedChange;
#X obj 299 588 r seedChange;
#X obj 299 613 random 5;
#X obj 204 679 vsl 10 50 0 500 0 0 empty empty empty 0 -9 0 10 -262144
-1 -1 2901 1;
#X obj 299 681 vsl 10 50 0 5 0 0 empty empty empty 0 -9 0 10 -262144
-1 -1 980 1;
#X obj 109 681 vsl 10 50 0 16000 0 0 empty empty empty 0 -9 0 10 -262144
-1 -1 3045 1;
#X obj 15 745 piMachine3, f 41;
#X obj 15 660 line;
#X obj 109 659 line;
#X obj 204 657 line;
#X obj 299 658 line;
#X msg 204 633 \$1 500;
#X msg 299 634 \$1 500;
#X msg 109 635 \$1 500;
#X msg 15 636 \$1 500;
#X obj 204 611 random 500;
#X text 12 573 buffer point;
#X text 107 574 filter freq;
#X text 201 573 filter q;
#X text 296 573 feedback level;
#X obj 109 614 random 16000;
#X obj 15 615 random 1000;
#X text 12 764 note: a high filter q will make the selected frequency
ring at a discernable pitch (making pitch sequences / melodies harmonies
possible).;
#X obj 1054 369 vsl 10 50 -3 3 0 0 empty empty empty 0 -9 0 10 -262144
-1 -1 4083 1;
#X text 1051 234 loop speed;
#X obj 1054 253 r seedChange;
#X obj 1054 344 line;
#X msg 1054 321 \$1 500;
#X obj 1054 430 bufferLoop;
#X obj 1054 275 random 7;
#X obj 1054 297 - 3;
#X text 1051 234 loop speed;
#X obj 1147 369 vsl 10 50 -3 3 0 0 empty empty empty 0 -9 0 10 -262144
-1 -1 2450 1;
#X text 1144 234 loop speed;
#X obj 1147 253 r seedChange;
#X obj 1147 344 line;
#X msg 1147 321 \$1 500;
#X obj 1147 430 bufferLoop;
#X obj 1147 275 random 7;
#X obj 1147 297 - 3;
#X text 1144 234 loop speed;
#X obj 1239 369 vsl 10 50 -3 3 0 0 empty empty empty 0 -9 0 10 -262144
-1 -1 0 1;
#X text 1236 234 loop speed;
#X obj 1239 253 r seedChange;
#X obj 1239 344 line;
#X msg 1239 321 \$1 500;
#X obj 1239 430 bufferLoop;
#X obj 1239 275 random 7;
#X obj 1239 297 - 3;
#X text 1236 234 loop speed;
#X obj 1332 369 vsl 10 50 -3 3 0 0 empty empty empty 0 -9 0 10 -262144
-1 -1 4083 1;
#X text 1329 234 loop speed;
#X obj 1332 253 r seedChange;
#X obj 1332 344 line;
#X msg 1332 321 \$1 500;
#X obj 1332 430 bufferLoop;
#X obj 1332 275 random 7;
#X obj 1332 297 - 3;
#X text 1329 234 loop speed;
#X obj 1051 592 vsl 10 50 -3 3 0 0 empty empty empty 0 -9 0 10 -262144
-1 -1 3267 1;
#X text 1048 457 loop speed;
#X obj 1051 476 r seedChange;
#X obj 1051 567 line;
#X msg 1051 544 \$1 500;
#X obj 1051 653 bufferLoop;
#X obj 1051 498 random 7;
#X obj 1051 520 - 3;
#X text 1048 457 loop speed;
#X obj 1144 592 vsl 10 50 -3 3 0 0 empty empty empty 0 -9 0 10 -262144
-1 -1 817 1;
#X text 1141 457 loop speed;
#X obj 1144 476 r seedChange;
#X obj 1144 567 line;
#X msg 1144 544 \$1 500;
#X obj 1144 653 bufferLoop;
#X obj 1144 498 random 7;
#X obj 1144 520 - 3;
#X text 1141 457 loop speed;
#X obj 1236 592 vsl 10 50 -3 3 0 0 empty empty empty 0 -9 0 10 -262144
-1 -1 4900 1;
#X text 1233 457 loop speed;
#X obj 1236 476 r seedChange;
#X obj 1236 567 line;
#X msg 1236 544 \$1 500;
#X obj 1236 653 bufferLoop;
#X obj 1236 498 random 7;
#X obj 1236 520 - 3;
#X text 1233 457 loop speed;
#X obj 1329 592 vsl 10 50 -3 3 0 0 empty empty empty 0 -9 0 10 -262144
-1 -1 0 1;
#X text 1326 457 loop speed;
#X obj 1329 476 r seedChange;
#X obj 1329 567 line;
#X msg 1329 544 \$1 500;
#X obj 1329 653 bufferLoop;
#X obj 1329 498 random 7;
#X obj 1329 520 - 3;
#X text 1326 457 loop speed;
#X obj 1055 150 vsl 10 50 -3 3 0 0 empty empty empty 0 -9 0 10 -262144
-1 -1 0 1;
#X text 1052 15 loop speed;
#X obj 1055 34 r seedChange;
#X obj 1055 125 line;
#X msg 1055 102 \$1 500;
#X obj 1055 211 bufferLoop;
#X obj 1055 56 random 7;
#X obj 1055 78 - 3;
#X text 1052 15 loop speed;
#X obj 1148 150 vsl 10 50 -3 3 0 0 empty empty empty 0 -9 0 10 -262144
-1 -1 2450 1;
#X text 1145 15 loop speed;
#X obj 1148 34 r seedChange;
#X obj 1148 125 line;
#X msg 1148 102 \$1 500;
#X obj 1148 211 bufferLoop;
#X obj 1148 56 random 7;
#X obj 1148 78 - 3;
#X text 1145 15 loop speed;
#X obj 1240 150 vsl 10 50 -3 3 0 0 empty empty empty 0 -9 0 10 -262144
-1 -1 2450 1;
#X text 1237 15 loop speed;
#X obj 1240 34 r seedChange;
#X obj 1240 125 line;
#X msg 1240 102 \$1 500;
#X obj 1240 211 bufferLoop;
#X obj 1240 56 random 7;
#X obj 1240 78 - 3;
#X text 1237 15 loop speed;
#X obj 1333 150 vsl 10 50 -3 3 0 0 empty empty empty 0 -9 0 10 -262144
-1 -1 817 1;
#X text 1330 15 loop speed;
#X obj 1333 34 r seedChange;
#X obj 1333 125 line;
#X msg 1333 102 \$1 500;
#X obj 1333 211 bufferLoop;
#X obj 1333 56 random 7;
#X obj 1333 78 - 3;
#X text 1330 15 loop speed;
#X obj 454 417 vsl 10 50 0 500 0 0 empty empty empty 0 -9 0 10 -262144
-1 -1 4900 1;
#X obj 454 325 r seedChange;
#X obj 548 325 r seedChange;
#X obj 643 322 r seedChange;
#X obj 738 322 r seedChange;
#X obj 738 347 random 5;
#X obj 643 413 vsl 10 50 0 500 0 0 empty empty empty 0 -9 0 10 -262144
-1 -1 4724 1;
#X obj 738 415 vsl 10 50 0 5 0 0 empty empty empty 0 -9 0 10 -262144
-1 -1 1960 1;
#X obj 548 415 vsl 10 50 0 16000 0 0 empty empty empty 0 -9 0 10 -262144
-1 -1 3065 1;
#X obj 454 479 piMachine3, f 41;
#X obj 454 394 line;
#X obj 548 393 line;
#X obj 643 391 line;
#X obj 738 392 line;
#X msg 643 367 \$1 500;
#X msg 738 368 \$1 500;
#X msg 548 369 \$1 500;
#X msg 454 370 \$1 500;
#X obj 643 345 random 500;
#X text 451 307 buffer point;
#X text 546 308 filter freq;
#X text 640 307 filter q;
#X text 735 307 feedback level;
#X obj 548 348 random 16000;
#X obj 454 349 random 1000;
#X text 451 498 note: a high filter q will make the selected frequency
ring at a discernable pitch (making pitch sequences / melodies harmonies
possible).;
#X obj 452 678 vsl 10 50 0 500 0 0 empty empty empty 0 -9 0 10 -262144
-1 -1 1607 1;
#X obj 452 586 r seedChange;
#X obj 546 586 r seedChange;
#X obj 641 583 r seedChange;
#X obj 736 583 r seedChange;
#X obj 736 608 random 5;
#X obj 641 674 vsl 10 50 0 500 0 0 empty empty empty 0 -9 0 10 -262144
-1 -1 4361 1;
#X obj 736 676 vsl 10 50 0 5 0 0 empty empty empty 0 -9 0 10 -262144
-1 -1 1960 1;
#X obj 546 676 vsl 10 50 0 16000 0 0 empty empty empty 0 -9 0 10 -262144
-1 -1 1097 1;
#X obj 452 740 piMachine3, f 41;
#X obj 452 655 line;
#X obj 546 654 line;
#X obj 641 652 line;
#X obj 736 653 line;
#X msg 641 628 \$1 500;
#X msg 736 629 \$1 500;
#X msg 546 630 \$1 500;
#X msg 452 631 \$1 500;
#X obj 641 606 random 500;
#X text 449 568 buffer point;
#X text 544 569 filter freq;
#X text 638 568 filter q;
#X text 733 568 feedback level;
#X obj 546 609 random 16000;
#X obj 452 610 random 1000;
#X text 449 759 note: a high filter q will make the selected frequency
ring at a discernable pitch (making pitch sequences / melodies harmonies
possible).;
#X text 9 5 USE HEADPHONES. This patch uses live microphone feedback
and will accumulate quickly and dangerously if monitored through speakers!
Each [piMachine3] object takes global live mic input and writes its
own (unique/distinct) one-second buffer \, while simulataneouls writing
to a larger \, global five-second buffer. The [bufferLoop] objects
access the global buffer at various points. The [piMachine3] objects'
individual buffers aren't heard directly \; only the [bufferLoop] objects
send signal to the output. So we're hearing X # of [piMachine3] buffers
and their feedback loops collapsed into a global buffer.;
#X msg 609 35 1 \; pd dsp 1 \; mic_input_level 1 \; dB_master_level
100;
#X connect 0 0 28 0;
#X connect 1 0 28 1;
#X connect 3 0 228 0;
#X connect 4 0 2 0;
#X connect 5 0 4 0;
#X connect 6 0 5 0;
#X connect 7 0 26 0;
#X connect 8 0 17 0;
#X connect 9 0 34 0;
#X connect 10 0 33 0;
#X connect 11 0 27 0;
#X connect 12 0 13 0;
#X connect 13 0 23 0;
#X connect 14 0 17 2;
#X connect 15 0 17 3;
#X connect 16 0 17 1;
#X connect 18 0 8 0;
#X connect 19 0 16 0;
#X connect 20 0 14 0;
#X connect 21 0 15 0;
#X connect 22 0 20 0;
#X connect 23 0 21 0;
#X connect 24 0 19 0;
#X connect 25 0 18 0;
#X connect 27 0 22 0;
#X connect 33 0 24 0;
#X connect 34 0 25 0;
#X connect 35 0 39 0;
#X connect 36 0 35 1;
#X connect 37 0 36 0;
#X connect 38 0 35 0;
#X connect 41 0 50 0;
#X connect 42 0 65 0;
#X connect 43 0 64 0;
#X connect 44 0 59 0;
#X connect 45 0 46 0;
#X connect 46 0 56 0;
#X connect 47 0 50 2;
#X connect 48 0 50 3;
#X connect 49 0 50 1;
#X connect 51 0 41 0;
#X connect 52 0 49 0;
#X connect 53 0 47 0;
#X connect 54 0 48 0;
#X connect 55 0 53 0;
#X connect 56 0 54 0;
#X connect 57 0 52 0;
#X connect 58 0 51 0;
#X connect 59 0 55 0;
#X connect 64 0 57 0;
#X connect 65 0 58 0;
#X connect 67 0 72 0;
#X connect 69 0 73 0;
#X connect 70 0 67 0;
#X connect 71 0 70 0;
#X connect 73 0 74 0;
#X connect 74 0 71 0;
#X connect 76 0 81 0;
#X connect 78 0 82 0;
#X connect 79 0 76 0;
#X connect 80 0 79 0;
#X connect 82 0 83 0;
#X connect 83 0 80 0;
#X connect 85 0 90 0;
#X connect 87 0 91 0;
#X connect 88 0 85 0;
#X connect 89 0 88 0;
#X connect 91 0 92 0;
#X connect 92 0 89 0;
#X connect 94 0 99 0;
#X connect 96 0 100 0;
#X connect 97 0 94 0;
#X connect 98 0 97 0;
#X connect 100 0 101 0;
#X connect 101 0 98 0;
#X connect 103 0 108 0;
#X connect 105 0 109 0;
#X connect 106 0 103 0;
#X connect 107 0 106 0;
#X connect 109 0 110 0;
#X connect 110 0 107 0;
#X connect 112 0 117 0;
#X connect 114 0 118 0;
#X connect 115 0 112 0;
#X connect 116 0 115 0;
#X connect 118 0 119 0;
#X connect 119 0 116 0;
#X connect 121 0 126 0;
#X connect 123 0 127 0;
#X connect 124 0 121 0;
#X connect 125 0 124 0;
#X connect 127 0 128 0;
#X connect 128 0 125 0;
#X connect 130 0 135 0;
#X connect 132 0 136 0;
#X connect 133 0 130 0;
#X connect 134 0 133 0;
#X connect 136 0 137 0;
#X connect 137 0 134 0;
#X connect 139 0 144 0;
#X connect 141 0 145 0;
#X connect 142 0 139 0;
#X connect 143 0 142 0;
#X connect 145 0 146 0;
#X connect 146 0 143 0;
#X connect 148 0 153 0;
#X connect 150 0 154 0;
#X connect 151 0 148 0;
#X connect 152 0 151 0;
#X connect 154 0 155 0;
#X connect 155 0 152 0;
#X connect 157 0 162 0;
#X connect 159 0 163 0;
#X connect 160 0 157 0;
#X connect 161 0 160 0;
#X connect 163 0 164 0;
#X connect 164 0 161 0;
#X connect 166 0 171 0;
#X connect 168 0 172 0;
#X connect 169 0 166 0;
#X connect 170 0 169 0;
#X connect 172 0 173 0;
#X connect 173 0 170 0;
#X connect 175 0 184 0;
#X connect 176 0 199 0;
#X connect 177 0 198 0;
#X connect 178 0 193 0;
#X connect 179 0 180 0;
#X connect 180 0 190 0;
#X connect 181 0 184 2;
#X connect 182 0 184 3;
#X connect 183 0 184 1;
#X connect 185 0 175 0;
#X connect 186 0 183 0;
#X connect 187 0 181 0;
#X connect 188 0 182 0;
#X connect 189 0 187 0;
#X connect 190 0 188 0;
#X connect 191 0 186 0;
#X connect 192 0 185 0;
#X connect 193 0 189 0;
#X connect 198 0 191 0;
#X connect 199 0 192 0;
#X connect 201 0 210 0;
#X connect 202 0 225 0;
#X connect 203 0 224 0;
#X connect 204 0 219 0;
#X connect 205 0 206 0;
#X connect 206 0 216 0;
#X connect 207 0 210 2;
#X connect 208 0 210 3;
#X connect 209 0 210 1;
#X connect 211 0 201 0;
#X connect 212 0 209 0;
#X connect 213 0 207 0;
#X connect 214 0 208 0;
#X connect 215 0 213 0;
#X connect 216 0 214 0;
#X connect 217 0 212 0;
#X connect 218 0 211 0;
#X connect 219 0 215 0;
#X connect 224 0 217 0;
#X connect 225 0 218 0;
#X connect 228 0 6 0;
