#N canvas -117 388 1440 282 10;
#X obj 12 39 netreceive -u 6726;
#X msg 12 11 listen 6726;
#X obj 12 91 s mach1_loc;
#X obj 100 91 s mach2_loc;
#X obj 186 91 s mach3_loc;
#X obj 270 91 s mach4_loc;
#X obj 336 112 s mach1_freq;
#X obj 426 112 s mach2_freq;
#X obj 516 112 s mach3_freq;
#X obj 608 112 s mach4_freq;
#X obj 674 135 s mach1_q;
#X obj 744 135 s mach2_q;
#X obj 814 135 s mach3_q;
#X obj 885 135 s mach4_q;
#X obj 928 157 s mach1_fdbk;
#X obj 1018 157 s mach2_fdbk;
#X obj 1108 157 s mach3_fdbk;
#X obj 1200 157 s mach4_fdbk;
#X obj 678 186 s loop1_speed;
#X obj 776 186 s loop2_speed;
#X obj 874 186 s loop3_speed;
#X obj 972 186 s loop4_speed;
#X obj 1070 186 s loop5_speed;
#X obj 1168 186 s loop6_speed;
#X obj 780 216 s loop1_length;
#X obj 885 216 s loop2_length;
#X obj 990 216 s loop3_length;
#X obj 1095 216 s loop4_length;
#X obj 1201 216 s loop5_length;
#X obj 1306 216 s loop6_length;
#X text 533 218 0 - 10000 (or buffer length in ms);
#X text 262 187 use floats (1 = normal \, -1 = reverse \, 0 = stop
\, >1 = fast \, etc.);
#X text 85 114 20 - 20000 (range of human hearing);
#X text 369 137 0 - 500 (high values make a steeper filter);
#X text 621 160 0 - 9 (higher values produce more feedback);
#X text 354 91 0 - 1000 (access point in one second buffer);
#X obj 12 61 unpack f f f f f f f f f f f f f f f f f f f f f f f f
f f f f f, f 201;
#X obj 1347 153 s autoRandom;
#X connect 0 0 36 0;
#X connect 1 0 0 0;
#X connect 36 0 2 0;
#X connect 36 1 3 0;
#X connect 36 2 4 0;
#X connect 36 3 5 0;
#X connect 36 4 6 0;
#X connect 36 5 7 0;
#X connect 36 6 8 0;
#X connect 36 7 9 0;
#X connect 36 8 10 0;
#X connect 36 9 11 0;
#X connect 36 10 12 0;
#X connect 36 11 13 0;
#X connect 36 12 14 0;
#X connect 36 13 15 0;
#X connect 36 14 16 0;
#X connect 36 15 17 0;
#X connect 36 16 18 0;
#X connect 36 17 19 0;
#X connect 36 18 20 0;
#X connect 36 19 21 0;
#X connect 36 20 22 0;
#X connect 36 21 23 0;
#X connect 36 22 24 0;
#X connect 36 23 25 0;
#X connect 36 24 26 0;
#X connect 36 25 27 0;
#X connect 36 26 28 0;
#X connect 36 27 29 0;
#X connect 36 28 37 0;
