#N canvas 485 217 450 300 10;
#X obj 86 89 udpreceive~ 8008 1 512, f 24;
#X obj 86 187 *~, f 4;
#X obj 111 125 vsl 10 50 0 1 0 0 empty empty empty 0 -9 0 10 -262144
-1 -1 4500 1;
#X obj 86 209 dac~, f 8;
#X msg 86 62 buffer 2;
#X obj 141 187 *~, f 4;
#X obj 166 125 vsl 10 50 0 1 0 0 empty empty empty 0 -9 0 10 -262144
-1 -1 0 1;
#X connect 0 0 1 0;
#X connect 0 1 5 0;
#X connect 1 0 3 0;
#X connect 2 0 1 1;
#X connect 4 0 0 0;
#X connect 5 0 3 1;
#X connect 6 0 5 1;
