#N canvas 766 227 450 300 10;
#X obj 86 173 *~, f 4;
#X obj 111 110 vsl 10 50 0 1 0 0 empty empty empty 0 -9 0 10 -262144
-1 -1 4500 1;
#X obj 86 209 dac~, f 8;
#X msg 86 62 buffer 2;
#X obj 86 89 udpreceive~ 8008 1 512 239.200.200.200;
#X connect 0 0 2 0;
#X connect 0 0 2 1;
#X connect 1 0 0 1;
#X connect 3 0 4 0;
#X connect 4 0 0 0;
