#N canvas 766 227 450 300 10;
#X obj 86 173 *~, f 4;
#X obj 111 110 vsl 10 50 0 1 0 0 empty empty empty 0 -9 0 10 -262144
-1 -1 4600 1;
#X obj 86 209 dac~, f 8;
#X msg 94 50 reset 4;
#X msg 180 53 print;
#X obj 86 89 streamin~ 8008;
#X connect 0 0 2 0;
#X connect 0 0 2 1;
#X connect 1 0 0 1;
#X connect 3 0 5 0;
#X connect 4 0 5 0;
#X connect 5 0 0 0;
